<svg xmlns="http://www.w3.org/2000/svg" width="400" height="258.341"><g fill-rule="evenodd"><path d="m169.618 6.7-1.183.801c-5.937 4.037.197 11.922 7.613 9.787 2.414-.695 4.938-4.074 4.168-5.58-.088-.172-.162-.55-.164-.838-.015-2.353-3.417-4.534-7.265-4.66l-2.33-.076-.839.566m4.736 23.197c-5.102.976-7.588 5.233-5.363 9.182.402.715 2.585 2.857 2.912 2.859.078 0 .54.177 1.025.392 2.345 1.039 2.879 1.148 5.494 1.122 1.324-.013 2.562-.107 2.753-.209.191-.103.531-.186.755-.186 3.002 0 6.524-5.242 5.231-7.785-.091-.178-.28-.574-.42-.88-1.569-3.429-7.227-5.482-12.387-4.495m6.168.434c4.611 1.436 7.138 4.792 6.154 8.175-.331 1.141-2.504 3.619-3.173 3.619-.156 0-.429.074-.607.165-2.699 1.373-6.499 1.252-9.939-.316-.47-.214-.963-.52-1.095-.679-.132-.159-.326-.288-.431-.288-.375 0-1.879-1.788-2.332-2.771-2.368-5.146 4.66-10.01 11.423-7.905M61.106 34.68c-.478.173-1.12.493-1.427.711-.306.218-.614.397-.684.397-.181 0-.791.737-1.158 1.397-.803 1.446-.104 4.631 1.123 5.122.224.089.623.369.889.622 3.105 2.961 11.666 1.734 12.613-1.808.279-1.045.298-1.915.045-2.072-.103-.063-.186-.323-.186-.577 0-2.798-7.216-5.238-11.215-3.792m22.678 15.878c-2.163.742-3.562 1.597-4.385 2.678-.459.604-.897 1.126-.974 1.16-.077.034-.14.206-.14.382 0 .176-.088.408-.196.516-.311.311-.358 3.993-.052 4.11a.418.418 0 0 1 .248.362c0 .408 1.846 2.736 2.399 3.025.27.141.616.363.77.494.483.41 1.552.935 2.423 1.191.461.135 1.082.32 1.379.411.807.246 4.161.186 5.331-.095 7.205-1.731 8.302-9.447 1.864-13.11-2.115-1.204-6.702-1.799-8.667-1.124m4.672.152c6.119 1.091 9.463 5.943 7.043 10.219-.721 1.274-2.893 2.938-4.259 3.263l-1.398.337c-4.504 1.094-9.948-1.499-11.377-5.419-1.749-4.796 3.842-9.496 9.991-8.4m79.95 1.119c-.615.086-1.642.212-2.283.281-.898.096-1.166.194-1.17.429-.002.167-.43.592-.95.945-3.03 2.056-4.662 5.155-4.649 8.826.004 1.003.092 1.983.196 2.177.104.195.189.556.189.803 0 3.051 4.742 7.092 8.936 7.616 4.152.518 8.731-1.368 10.411-4.288 4.927-8.567-1.146-18.114-10.68-16.789m4.218.439c1.339.32 3.464 1.434 4.413 2.314 2.492 2.311 3.455 4.514 3.473 7.953.013 2.365-.046 2.623-1.068 4.72-2.844 5.837-11.391 7.404-16.169 2.963-8.141-7.565-1.393-20.519 9.351-17.95m84.972 5.58c-2.126.637-3.585 1.717-4.302 3.184-.891 1.825-.079 4.889 1.482 5.593.419.189.892.542 1.051.786.16.243.812.682 1.449.975 5.704 2.623 12.899.869 13.918-3.392.464-1.94-.271-3.98-1.698-4.707-.476-.243-1.026-.646-1.222-.894-1.297-1.65-7.389-2.531-10.678-1.545m-25.07 3.306c-3.755.369-6.552 2.193-7.741 5.047-.114.274-.318.54-.453.592-.419.161-.042 3.78.518 4.968 2.027 4.3 10.151 6.872 14.479 4.584.359-.19.84-.439 1.07-.554.23-.115.419-.271.42-.348 0-.077.112-.14.249-.14.746 0 2.564-2.471 2.905-3.95 1.378-5.966-4.177-10.915-11.447-10.199m4.193.621c7.918 1.947 9.773 10.562 2.983 13.852-2.019.978-7.192 1.505-7.893.805-.108-.108-.342-.197-.519-.197-.757 0-3.446-1.583-4.491-2.644-4.329-4.396-2.033-10.346 4.608-11.948.806-.194 4.343-.106 5.312.132m-97.297 7.004c-.154.1-.505.182-.781.184-.276.001-.553.086-.617.189-.063.102-.304.186-.535.186-.231 0-.767.168-1.191.373-.425.205-1 .373-1.278.373s-.451.055-.383.123-.311.416-.842.774c-1.952 1.314-5.556 5.423-5.556 6.332 0 .096-.252.73-.56 1.408-.319.706-.559 1.55-.559 1.972 0 .406-.084.791-.186.854-.467.288-.148 5.86.392 6.858.099.185.124.638.054 1.009-.108.577-.082.657.18.557.185-.072.306-.024.306.121 0 .229.615 1.674.892 2.096 1.371 2.088 3.548 4.414 4.643 4.961.442.221.93.596 1.086.834.171.261.468.433.748.433.255 0 .861.176 1.347.391.486.215 1.051.46 1.256.544 1.712.699 7.955.823 8.864.176.441-.315.697-.359 1.473-.256.647.086.94.059.94-.086 0-.115-.147-.217-.327-.225-.254-.011-.264-.036-.046-.11.751-.256 1.526-.674 2.023-1.093.303-.254.794-.567 1.093-.694.562-.24 2.443-2.168 3.226-3.307.738-1.073.928-1.225 1.147-.916.14.199.163.16.093-.158-.064-.292.02-.483.273-.618a.575.575 0 0 0 .309-.603c-.038-.278.038-.401.239-.387.228.016.3-.181.315-.873.011-.492.16-1.34.33-1.885.791-2.539.45-7.688-.675-10.169-.197-.434-.358-.874-.358-.978 0-.215-1.321-2.114-1.536-2.208-.078-.034-.142-.138-.142-.231 0-.159-.367-.66-.885-1.205-.128-.135-.233-.336-.233-.446 0-.109-.084-.199-.186-.199s-.511-.294-.908-.653c-.397-.358-.81-.652-.917-.652-.107 0-.223-.066-.257-.147-.191-.45-3.519-2.08-4.263-2.087-.158-.001-.616-.17-1.018-.375-.81-.413-6.409-.563-6.99-.187m8.066.813c4.639 1.553 9.021 6.095 9.912 10.278 1.405 6.595.325 10.726-4.028 15.408-.79.85-3.146 2.578-3.514 2.578-.101 0-.184.071-.184.156 0 .086-.776.42-1.724.741-12.411 4.21-23.884-6.598-20.244-19.07 2.411-8.264 11.454-12.877 19.782-10.091m59.698-.455c-.069.111-.471.201-.893.201-.844 0-1.531.19-3.218.887-2.985 1.236-3.098 1.291-3.728 1.832-.288.248-.577.45-.643.45-.191 0-2.099 1.885-2.735 2.703-1.609 2.068-3.137 7.129-2.306 7.642.102.063.192.299.2.523.007.225.154.621.326.881.172.26.48.756.685 1.101.205.346.505.762.667.926.452.456 1.282 1.135 1.387 1.135.285 0 1.947 1.252 1.95 1.468.003.179.159.227.516.158.282-.054 1.579-.04 2.882.031 2.643.145 5.034-.008 5.141-.328.038-.116.351-.21.696-.21.344 0 .671-.074.727-.164.164-.266 1.001-.357 1.239-.135.163.153.197.134.135-.071-.084-.276.037-.363 1.713-1.238 2.043-1.067 5.78-4.349 5.78-5.077 0-.097.18-.541.4-.986.58-1.177.675-1.448.894-2.543.258-1.289.251-2.685-.015-3.338-.475-1.162-.934-2.153-1.092-2.356-.879-1.128-1.615-1.8-2.368-2.162-.82-.394-1.096-.514-2.199-.955-1.074-.428-5.925-.725-6.141-.375m5.268.499c7.962 1.769 8.513 10.917.966 16.048-8.466 5.755-19.385 3.319-19.385-4.324 0-7.353 9.855-13.626 18.419-11.724m-60.497.39c.18.047.326.205.326.351s.084.266.187.266c.102 0 .186-.067.186-.149 0-.258-.435-.597-.736-.575-.222.017-.213.042.037.107m-51.025 3.05c-.513.092-1.288.221-1.724.285-.436.064-.792.179-.792.254 0 .076-.323.234-.718.353-.624.187-2.069 1.137-2.776 1.826-.128.124-.438.388-.69.586-2.467 1.941-3.656 8.003-2.137 10.896.093.178.17.451.17.606 0 .155.064.282.142.282.078 0 .35.336.603.746.254.41.535.745.625.745.09 0 .124.21.075.466-.07.369-.013.466.277.466.202 0 .798.389 1.326.865.527.475 1.295 1.075 1.705 1.332.41.258.795.544.856.637.06.092.186.148.279.124.093-.024.505.055.915.176.41.12 1.001.22 1.314.22.313.001.654.087.759.192.108.108 1.279.204 2.694.221 2.369.028 2.909-.048 4.422-.622a3.01 3.01 0 0 1 .889-.163c.254 0 .808-.229 1.232-.509.458-.304.958-.486 1.234-.45.347.046.436-.009.357-.216-.065-.17.179-.555.633-.995.772-.752 1.843-2.199 1.843-2.492 0-.094.165-.259.366-.366.215-.116.322-.31.26-.473-.058-.152-.023-.277.078-.277.225 0 .601-1.426.601-2.282 0-.344.095-.72.21-.836.442-.441-.714-5.125-1.468-5.949-.231-.252-.419-.52-.419-.596 0-.277-1.98-2.229-2.855-2.817-.494-.331-.94-.712-.992-.846-.086-.223-.73-.529-1.033-.491-.07.009-.783-.199-1.585-.461-1.622-.531-4.944-.748-6.676-.437m5.238.341c.297.091.918.273 1.379.405.461.133.918.31 1.016.395a.767.767 0 0 0 .437.154c.517 0 2.897 1.78 3.971 2.97 6.16 6.825.843 16.788-8.959 16.788-10.476 0-16.246-10.794-9.42-17.621 2.569-2.569 8.281-4.094 11.576-3.091m111.134 10.659c-.32.338-.268.547.135.547.278 0 .524-.572.321-.749-.08-.07-.286.021-.456.202m-39.901 2.928c-.178.076.997.141 2.609.145 2.961.008 3.867.139 6.102.879 4.463 1.479 7.994 4.287 10.747 8.548.394.608.716 1.138.716 1.177 0 .039.302.714.67 1.502 1.422 3.035 1.998 5.827 2.002 9.692.002 2.947-.079 3.576-.824 6.368-.412 1.542-.421 1.615-.171 1.46.103-.063.187-.309.187-.547 0-.238.118-.53.262-.65.144-.12.318-.738.387-1.374.068-.636.248-1.964.399-2.951.28-1.825.265-2.18-.282-6.791-.086-.724-.284-1.605-.44-1.957-.155-.353-.431-1.144-.613-1.759a14.814 14.814 0 0 0-.744-1.958c-.792-1.599-.876-1.829-.751-2.032.071-.115-.001-.204-.164-.204-.16 0-.291-.088-.291-.194 0-.107-.168-.375-.373-.595-.205-.22-.372-.504-.372-.632 0-.127-.15-.279-.333-.337-.183-.058-.488-.369-.678-.691-.438-.741-2.644-2.901-3.331-3.261-.286-.15-.957-.604-1.491-1.009-.534-.404-1.067-.736-1.184-.736-.117-.001-.257-.115-.31-.254-.054-.139-.444-.309-.867-.377-.423-.067-.913-.195-1.088-.284-1.816-.92-3.174-1.183-6.469-1.253-1.64-.034-3.127-.001-3.305.075m-1.914.414-.373.161.373-.009c.205-.005.625-.073.932-.152l.559-.142-.559-.009c-.307-.005-.727.063-.932.151m-1.491.373c-.063.103-.275.187-.471.187-.196 0-.631.15-.968.334-.336.185-.968.45-1.403.589-.436.14-.793.325-.793.411 0 .086-.104.157-.233.157-.128 0-.526.252-.885.559-.359.308-.913.683-1.232.835-.763.363-2.745 2.405-5.215 5.372a5.087 5.087 0 0 0-.647 1.091c-.142.343-.575 1.236-.962 1.985-.388.749-.704 1.52-.704 1.713 0 .194-.075.398-.166.454-.091.057-.209.376-.262.71-.053.335-.19.943-.304 1.353-.754 2.708-.883 10.949-.178 11.384.09.056.164.321.164.59 0 .936 1.448 4.679 2.266 5.856.189.272.344.586.344.699 0 .112.083.204.186.204.102 0 .186.128.186.285 0 .241.379.736 1.404 1.838.106.114.396.5.645.859s.598.759.777.89c.179.13.434.345.567.478.133.132.864.692 1.623 1.244.76.552 1.284 1.036 1.165 1.075-.119.04-.216.155-.216.256s.17.129.377.063c.26-.082.362-.042.327.127-.031.149.096.232.321.209.205-.022.708.11 1.118.292.411.182 1.123.439 1.585.57.461.131.984.314 1.162.406.178.093.53.168.781.168.252 0 .51.084.573.187.063.102.509.179.99.169.864-.016.858-.02-.524-.349-7.258-1.727-13.228-7.465-15.133-14.545-2.154-8.005-.763-15.327 4.107-21.622 2.293-2.963 6.703-6.042 9.861-6.886.436-.116.792-.25.792-.297 0-.171-.912-.082-1.025.1m-51.63 17.334c-.064.103-.77.187-1.568.187-.799 0-1.696.074-1.993.163-.297.09-1.002.27-1.566.4-1.733.399-3.865 1.298-5.122 2.158-.659.451-1.251.821-1.315.821-.172 0-2.299 1.857-2.987 2.609l-1.278 1.398c-.375.41-.856 1.076-1.069 1.48-.213.403-.503.849-.644.99-.388.388-1.564 2.813-1.564 3.225 0 .2-.124.363-.275.363-.204 0-.247.139-.168.536.061.306.019.592-.098.664-.112.07-.207.352-.211.628-.003.276-.132.669-.287.874-.21.279-.25.619-.159 1.351.086.692.059.98-.095.98-.264 0-.157 4.826.15 6.71.385 2.371.44 2.609.604 2.609.091 0 .166.163.166.362 0 .199.092.419.205.489.119.073.159.36.094.683-.082.411-.048.532.131.463.257-.099.492.362.858 1.688.121.438.384.899.585 1.024.2.125.364.283.364.352s.294.573.655 1.12c.36.547.614 1.099.565 1.228-.055.141.064.233.302.233.634 0 2.839 2.361 2.43 2.602-.245.145-.19.164.242.085.399-.073.669 0 .943.258.212.198.568.458.793.578.224.12.407.341.407.491 0 .151.098.273.218.273s.833.229 1.584.509c1.322.491 1.715.793 1.041.799-.264.002-.276.035-.064.169.145.092.376.123.513.07.346-.132 1.102.078 1.419.395.156.156.791.296 1.569.344.719.045 1.409.144 1.534.222.392.242 6.707.195 6.954-.052.121-.121.743-.219 1.392-.219.646 0 1.175-.072 1.175-.16 0-.237 3.753-2.079 4.234-2.078.254.001.38-.089.327-.232-.05-.132.376-.533.984-.927 1.334-.865 3.872-3.31 4.709-4.535.345-.507.696-.95.779-.984.083-.034.15-.181.15-.326 0-.145.064-.264.141-.264.078 0 .251-.273.385-.606.391-.969.927-1.939 1.291-2.335.128-.14.287-.479.352-.753.066-.275.207-.61.313-.745.106-.135.175-.659.151-1.165-.023-.506.039-.92.137-.92.339 0 .758-6.985.438-7.304-.112-.113-.176.628-.174 2.025.019 13.137-11.202 23.285-23.444 21.202-.922-.157-1.971-.333-2.33-.391-.358-.058-.736-.166-.838-.24-.103-.073-.9-.414-1.771-.757-16.515-6.494-16.636-31.599-.187-38.761 2.039-.887 2.052-.892 3.169-1.125a24.731 24.731 0 0 0 1.598-.385c.908-.273 5.6-.206 7.069.101.718.15 1.557.323 1.864.386.595.121.796.196 2.188.813.486.215.943.392 1.014.392.241 0 2.753 1.552 3.601 2.224 3.905 3.098 6.512 7.267 7.644 12.221.326 1.427.341 1.454.356.617.009-.481-.068-.926-.171-.99-.102-.063-.186-.399-.186-.745 0-.347-.084-.683-.187-.746-.102-.063-.186-.362-.186-.663 0-.302-.084-.548-.186-.548-.103 0-.187-.107-.187-.238s-.249-.739-.553-1.352c-.304-.612-.556-1.263-.559-1.446-.003-.183-.176-.519-.384-.746-.208-.227-.755-.916-1.216-1.531-1.942-2.59-6.94-6.617-8.213-6.617-.142 0-.258-.075-.258-.166 0-.092-.315-.207-.699-.257-.636-.081-2.017-.432-3.508-.891-.315-.097-1.18-.177-1.923-.177-.743 0-1.508-.084-1.7-.187-.233-.125-.387-.125-.464 0m76.457 12.19c-.076.194-.095.396-.041.45.17.17.32-.108.248-.462-.065-.325-.075-.324-.207.012m-1.208 2.582c-1.516 3.02-3.67 5.588-6.434 7.668-1.256.945-4.14 2.538-4.596 2.538-.109 0-.344.079-.522.176-1.274.694-4.168 1.175-6.978 1.159-1.667-.01-2.16.042-2.092.219.105.275 4.602.241 5.67-.043a53.29 53.29 0 0 1 1.678-.401c.564-.126 1.336-.385 1.717-.576.38-.192.857-.348 1.06-.348.204 0 .421-.084.485-.186.063-.103.308-.187.545-.187.236 0 .643-.168.904-.373.26-.205.552-.372.648-.372.096 0 .327-.168.512-.373.186-.205.497-.373.693-.373.195 0 .307-.077.248-.172-.121-.196.722-.844 1.467-1.127.297-.113.579-.418.695-.75.108-.308.313-.561.457-.561.144 0 .262-.062.263-.139 0-.077.252-.283.559-.458.335-.19.558-.47.558-.699 0-.21.377-.781.838-1.267.46-.487.838-.987.838-1.112.001-.125.127-.179.281-.12.194.075.279-.013.279-.285 0-.216.089-.393.198-.393.108 0 .155-.068.103-.152-.119-.193.229-1.197.771-2.23.464-.883.489-.973.267-.973-.084 0-.585.86-1.112 1.91m-39.555 15.602c-.257.087-.776.167-1.154.177-.379.01-.74.102-.804.205-.063.102-.357.186-.652.186-.295 0-.589.084-.652.186-.064.103-.357.187-.653.187-.295 0-.589.084-.652.186-.063.103-.278.187-.477.187-.199 0-.362.084-.362.186 0 .103-.168.186-.373.186s-.372.084-.372.187c0 .102-.126.186-.28.186-.154 0-.28.084-.28.187 0 .102-.111.186-.248.186-.341 0-4.067 3.714-4.406 4.392-.15.301-.507.898-.792 1.327-.285.428-.518.952-.518 1.165 0 .212-.084.385-.187.385-.102 0-.186.168-.186.373s-.12.373-.267.373c-.192 0-.27.248-.279.885-.007.487-.06 2.391-.118 4.23-.066 2.057-.035 3.492.078 3.728.289.6.45 1.429.447 2.309-.001.571.056.748.197.608.231-.231.607.268 1.381 1.831.554 1.121 2.964 3.671 4.396 4.653.773.529.862.653.652.908-.215.261-.18.279.298.16.505-.126 1.085.008 2.097.486.22.104.506.154.635.111s-.16-.229-.642-.413c-12.084-4.615-12.525-23.132-.674-28.3 14.836-6.47 28.352 9.814 19.204 23.137-3.538 5.153-11.632 7.833-17.2 5.696-.19-.072-.326-.038-.326.081 0 .114.193.207.429.207.235 0 .52.091.631.203.19.189 2.62.549 3.879.574 1.601.031 5.212-.695 6.278-1.263.311-.165.543-.196.613-.083.07.113.359.066.754-.122.499-.238.596-.361.436-.553-.154-.186-.137-.247.069-.247.15 0 .425-.168.611-.373.185-.205.434-.373.553-.373.118 0 .394-.167.613-.371.222-.206.526-.321.688-.259.204.078.289-.003.289-.278 0-.219.406-.791.932-1.311.513-.507.932-1.054.932-1.215 0-.162.07-.294.155-.294.085 0 .274-.23.419-.512.145-.282.311-.555.368-.606.056-.051.249-.409.429-.794.179-.385.5-.862.712-1.06.31-.289.362-.491.262-1.024-.071-.376-.05-.664.049-.664.425 0 .814-6.932.411-7.334-.107-.108-.195-.594-.195-1.08 0-.486-.084-.935-.187-.998-.102-.064-.186-.362-.186-.664 0-.301-.168-.716-.373-.921-.205-.205-.373-.42-.373-.479 0-.058-.251-.472-.559-.919-.307-.447-.559-.884-.559-.972 0-.088-.339-.534-.754-.992-.414-.457-.893-1.032-1.063-1.277-.171-.245-.545-.588-.831-.762-.286-.174-.852-.624-1.258-.999-.406-.376-.817-.683-.915-.683-.152 0-.831-.306-2.12-.955a1.812 1.812 0 0 0-.688-.163c-.2 0-.407-.07-.459-.155-.091-.145-1.268-.445-2.723-.691-1.177-.2-3.625-.256-4.1-.095m-64.586 12.989c-.857.069-1.317.206-2.187.648-.178.091-.43.167-.56.169-1.43.022-5.734 5.681-5.734 7.54 0 .218-.098.495-.219.615-.4.401-.346 6.707.056 6.458.09-.055.165.051.166.237.002.185.129.699.283 1.142.154.442.224.895.155 1.007-.07.113-.04.15.067.084.108-.067.238.105.296.39.456 2.257 5.893 7.873 7.62 7.873.16 0 .616.137 1.013.304 1.453.613 2.849.836 3.952.632.568-.105 1.347-.191 1.732-.191.386 0 .753-.084.816-.186.063-.103.315-.187.559-.187.244 0 .496-.084.559-.186.064-.103.471-.186.906-.186.837 0 1.238-.247 1.238-.761 0-.173.293-.537.65-.81.971-.74 1.706-1.582 2.171-2.487.229-.445.618-1.026.864-1.291.359-.387.424-.607.33-1.109-.073-.386-.043-.625.077-.625.107 0 .195-.361.195-.802 0-.441.089-.891.198-1 .343-.342-.013-6.074-.403-6.484-.092-.097-.168-.353-.168-.568 0-.461-.405-1.395-.606-1.397-.077 0-.139-.177-.139-.392 0-.215-.157-.613-.349-.885a13.153 13.153 0 0 1-.768-1.325c-.437-.861-2.275-2.813-3.73-3.961-2.281-1.798-5.337-2.564-9.04-2.266m5.113.656c9.479 2.929 13.261 16.293 6.538 23.103-5.394 5.464-14.336 3.196-18.493-4.69-5.354-10.16 2.001-21.489 11.955-18.413m-32.233 10.998c-2.153.587-2.671.785-3.477 1.327-.491.33-1.089.894-1.328 1.252a13.75 13.75 0 0 1-.83 1.112c-.592.686-.597 5.211-.007 6.175.214.349.596 1.148.849 1.776.475 1.178 3.319 4.358 3.896 4.358.141 0 .376.167.524.372.148.205.418.373.601.373.182 0 .331.069.331.152 0 1.2 7.034 1.767 9.241.745.958-.444 2.688-2.435 2.688-3.094 0-.186.08-.417.177-.515.305-.305.449-3.445.201-4.371-.455-1.697-1.423-3.611-2.322-4.59-.365-.397-.664-.781-.664-.853-.001-.072-.358-.381-.793-.687a18.295 18.295 0 0 1-1.352-1.052c-1.155-1.026-4.236-2.324-5.516-2.324-.388 0-.758-.084-.821-.186-.136-.221-.51-.213-1.398.03m2.944.64c4.279 1.016 7.633 4.001 9.345 8.314.529 1.332.51 4.292-.034 5.35-.179.349-.326.71-.326.801 0 .092-.356.52-.792.952-3.869 3.835-11.296 1.868-15.188-4.022-4.258-6.444-.173-13.098 6.995-11.395m57.168 3.244c-.234.1.498.158 1.957.155 1.438-.004 2.151-.063 1.864-.155-.626-.2-3.355-.2-3.821 0m82.106-.006-4.939.095 5.964.095 5.965.096.048 9.032c.047 8.709.123 9.853.599 8.963.731-1.365 3.577-3.165 6.343-4.01 1.362-.417 1.458-.471.683-.386-.495.054-1.208.233-1.584.398-.376.165-.893.386-1.15.492-.256.105-.771.348-1.143.54-.373.191-.793.349-.932.349-.14.001-.664.462-1.165 1.025-1.526 1.718-1.445 2.16-1.404-7.655.019-4.848-.038-8.75-.13-8.839-.26-.253-1.847-.296-7.155-.195m-84.063.379c-.344.222.151.222 1.025 0l.559-.142-.652-.02c-.359-.01-.779.063-.932.162m6.353-.119c.042.037.455.122.916.189.586.085.755.065.559-.065-.251-.167-1.662-.286-1.475-.124m72.118.669c0 .507-.101.793-.326.919-.31.174-.309.19.006.311.316.122.33 1.332.31 25.409l-.021 25.281.383.201c.257.135 1.953.175 5.142.123 3.351-.055 4.758-.018 4.758.125 0 .112.126.203.28.203.153 0 .279-.084.279-.186 0-.103.2-.187.443-.187.662 0 .837-.347.899-1.776.047-1.09.111-1.306.403-1.362.369-.07 1.797 1.178 1.797 1.572 0 .122.124.269.276.328a.289.289 0 0 1 .176.367c-.072.188.118.296.683.386.43.069 1.014.29 1.297.492.283.201.669.369.858.372.325.005.324.017-.017.215-.423.245.669.595 2.505.802 1.404.159 2.796.477 2.796.64 0 .349 6.454.224 7.894-.153.784-.205 1.949-.429 2.59-.496.641-.068 1.249-.227 1.352-.353.102-.126.501-.333.885-.46.384-.126.699-.307.699-.402 0-.094.123-.172.274-.172.452 0 3.254-1.716 3.423-2.097.034-.077.162-.14.284-.14.642 0 3.463-3.54 4.381-5.498.192-.41.528-1.126.748-1.59 1.442-3.053 2.057-12.835.94-14.95-.094-.178-.171-.536-.171-.795s-.074-.616-.164-.794c-.295-.585-.582-1.646-.582-2.155 0-.274-.084-.499-.186-.499-.103 0-.187-.129-.187-.287a.933.933 0 0 0-.186-.513c-.29-.351-1.502-2.223-1.774-2.741-.288-.548-2.798-3.119-4.112-4.211-1.042-.865-4.083-2.385-5.717-2.857-.384-.111-.977-.286-1.318-.388-.34-.103-.948-.177-1.351-.165-.403.012-.565.058-.36.103 5.097 1.108 9.058 3.247 11.395 6.155.396.493.763.938.814.99 1.217 1.216 2.874 4.988 3.691 8.402 2.667 11.132-2.763 21.955-12.457 24.835-7.556 2.245-15.3.886-19.689-3.456-2.141-2.117-2.26-2.101-2.275.315-.006.984-.061 1.87-.122 1.97-.155.25-11.026.242-11.181-.009-.206-.333-.204-52.366.001-52.453.103-.043.04-.085-.14-.093-.258-.011-.326.139-.326.722m-79.627-.265c-.054.055-.298.138-.543.185-.244.047-.472.17-.506.274-.035.103-.172.188-.306.188-.415 0-1.869.912-2.822 1.771-.114.102-.469.416-.789.697-.32.281-.79.84-1.044 1.243-.254.402-.538.779-.632.837-.094.058-.358.589-.585 1.18a71.109 71.109 0 0 1-.573 1.448c-.137.321-.299 1.476-.392 2.796-.056.8.426 3.914.648 4.186.337.413.729 1.65.592 1.871-.064.103.091.266.344.363.253.096.615.395.803.665.557.795 1.048 1.294 1.742 1.771.359.247.862.662 1.118.922a4.5 4.5 0 0 0 1.025.747c.308.151.715.429.905.619.19.189.461.3.604.245.239-.092 1.719.276 2.592.645 1.656.7 6.258.673 7.119-.041.146-.122.546-.156.99-.085.593.094.745.061.745-.163 0-.176.174-.282.466-.282.256 0 .466-.076.466-.17 0-.093.335-.227.745-.296.41-.069.808-.228.885-.352.077-.125.518-.516.979-.869a17.207 17.207 0 0 0 1.372-1.175c.293-.293.67-.554.838-.58.211-.034.29-.201.253-.54-.03-.27.012-.491.093-.491s.352-.399.602-.886c.249-.487.572-1.026.716-1.199.146-.175.334-1.043.423-1.957.088-.904.216-1.874.283-2.156.073-.303.046-.513-.066-.513-.104 0-.246.609-.316 1.352-1.005 10.73-16.514 14.323-24.009 5.562-3.038-3.551-3.458-8.891-.992-12.605 1.653-2.49 2.863-3.415 6.637-5.076.421-.185.429-.206.078-.217-.214-.007-.433.032-.488.086m9.357-.042c0 .055.44.244.979.42 4.289 1.404 7.842 5.5 8.397 9.682.053.4.081.321.099-.28.036-1.177-1.019-4.02-1.782-4.804-.182-.187-.6-.66-.929-1.051-.329-.391-.871-.912-1.205-1.159-1.145-.844-1.704-1.281-1.941-1.513-.13-.129-.327-.233-.439-.233-.213 0-.845-.324-1.315-.675-.154-.114-.405-.216-.559-.225a6.097 6.097 0 0 1-.792-.14c-.282-.067-.513-.077-.513-.022m-94.121 4.989c-2.197.392-3.424 2.309-2.972 4.647.342 1.769.584 2.609.752 2.609.089 0 .162.127.162.282 0 .154.168.425.373.6.205.176.373.426.373.557 0 1.319 7.058 6.185 8.996 6.201.18.001.474.075.652.164 2.84 1.416 7.166.454 8.157-1.815.772-1.767-.485-6.511-1.896-7.154-.241-.109-.439-.256-.439-.326 0-.275-1.224-1.536-2.124-2.189-.523-.38-1.061-.839-1.195-1.021-.134-.182-.32-.331-.413-.331-.093 0-.92-.369-1.838-.819-2.729-1.338-5.98-1.87-8.588-1.405m3.292.175c.492.104 1.146.222 1.453.264 3.519.477 10.904 5.99 10.904 8.139 0 .183.077.381.17.439.827.511.55 3.682-.418 4.778-.994 1.125-4.2 1.697-6.158 1.1-2.467-.754-4.837-1.795-5.709-2.507a2.44 2.44 0 0 0-.606-.345c-.179-.063-.326-.202-.326-.307 0-.106-.109-.193-.242-.193s-.951-.738-1.817-1.64c-4.615-4.805-4.211-9.011.941-9.794.832-.127.902-.124 1.808.066m227.703 6.782c-.633.113-1.22.281-1.305.372-.09.097.157.111.591.033.41-.074 1.501-.245 2.423-.38 1.605-.235 1.629-.245.56-.238-.615.003-1.636.099-2.269.213m9.274-.192c.21.183 2.615.303 2.505.125-.066-.106-.674-.193-1.351-.193-.678 0-1.197.031-1.154.068m40.711.118c-.134.218.398.221 1.585.01l.838-.149-1.154-.024c-.634-.012-1.205.061-1.269.163m8.31-.116c.043.039.665.127 1.383.195.919.088 1.222.068 1.025-.067-.251-.173-2.595-.297-2.408-.128m-45.852.369c.209.18 1.289.276 1.289.116 0-.1-.308-.182-.684-.182-.376 0-.648.03-.605.066m35.306.12c-.134.216.352.216 1.025 0 .418-.134.396-.151-.222-.168-.379-.01-.74.066-.803.168m14.818.167c8.043 1.771 14.744 8.336 15.145 14.838l.046.745-6.062.05-6.063.049-.672-1.354c-3.789-7.626-15.697-7.764-19.592-.226-1.869 3.614-1.836 9.631.073 13.429.975 1.94 3.765 4.362 5.026 4.362.313 0-.099-.45-.443-.484-.436-.042-1.065-.307-1.065-.447 0-.078-.251-.246-.559-.374-.308-.127-.559-.35-.559-.494 0-.145-.147-.319-.326-.387-.79-.301-2.122-2.408-2.208-3.491-.016-.201-.123-.397-.239-.435-.115-.039-.21-.268-.21-.51 0-.241-.083-.491-.186-.554-.102-.064-.186-.64-.186-1.282 0-.641-.09-1.653-.2-2.249-.143-.772-.143-1.14 0-1.283.11-.11.2-.766.2-1.457 0-.691.078-1.305.174-1.364.319-.197.726-1.205.632-1.564-.116-.444.571-1.817 1.062-2.124.203-.127.368-.349.368-.494 0-.795 2.261-2.546 2.966-2.298.181.064.226-.001.145-.212-.08-.209-.016-.305.204-.306.176-.001.56-.127.854-.28.294-.153.759-.278 1.034-.278.276 0 .602-.101.726-.225.419-.419 6.169-.209 6.644.243a.743.743 0 0 0 .444.168c.147 0 .452.199.677.442.225.242.822.649 1.326.903.602.303.899.564.865.76-.029.164.117.39.326.501.208.112.378.289.378.395 0 .105.259.41.575.676.317.266.799.952 1.072 1.525l.497 1.042 6.135-.049c6.444-.052 6.78-.096 6.538-.87-.066-.212-.19-.679-.274-1.038-.415-1.755-.778-2.851-1.031-3.103-.153-.153-.278-.386-.278-.517 0-.824-2.615-4.616-3.821-5.538a16.153 16.153 0 0 1-1.188-1.045c-1.075-1.054-5.51-3.404-6.425-3.404-.26 0-.519-.075-.576-.166-.107-.174-1.041-.349-2.622-.491-.691-.062-.522.007.653.265m41.071-.211c-.119.076 1.488.137 3.57.137s3.746-.062 3.699-.139c-.111-.181-6.985-.178-7.269.002m-147.036.459c-1.659.258-2.011.339-1.909.44.05.051.668-.006 1.373-.127.705-.12 2.582-.22 4.171-.221 1.589-.001 2.721-.068 2.516-.148-.506-.198-4.767-.16-6.151.056m40.634-.042c-.132.214.169.214.839 0 .445-.142.439-.15-.129-.168-.327-.01-.647.066-.71.168m18.841.457c5.068 1.685 8.592 4.569 10.839 8.872.381.729.724 1.231.762 1.116.082-.247-.753-2.069-1.123-2.447-.141-.144-.708-.918-1.259-1.718-.551-.801-1.219-1.57-1.483-1.708-.265-.138-.728-.511-1.029-.827-.301-.317-.637-.577-.746-.577-.109-.001-.64-.336-1.18-.746-.541-.409-1.107-.744-1.259-.744-.151 0-.275-.084-.275-.187 0-.102-.127-.186-.283-.186-.273 0-.471-.078-1.346-.53-.229-.119-.544-.216-.699-.216-.155 0-.282-.063-.282-.141 0-.196-1.377-.606-2.001-.595-.31.005.233.258 1.364.634m30.18-.457c-.137.223.228.223.746 0 .333-.143.319-.162-.129-.173-.276-.007-.553.071-.617.173m55.266-.056c-.496.18-1.575.642-1.908.817a1.78 1.78 0 0 1-.699.171c-.206 0-.375.074-.375.165 0 .09-.147.212-.326.271-.18.059-.746.354-1.259.657-.73.431-.988.504-1.195.334-.208-.17-.244-.157-.171.063.051.155-.184.57-.527.932-.341.359-.62.713-.621.785-.001.072-.192.324-.425.559a9.838 9.838 0 0 0-.852 1.034c-.754 1.067-.962.518-.962-2.535v-2.608l-.523-.115c-.289-.064-.729-.029-.979.076-.448.189-.446.192.104.174 1.296-.041 1.198-.286 1.254 3.141.059 3.572.209 3.876 1.158 2.336 1.691-2.744 5.016-5.042 8.682-6.002 1.202-.314 1.292-.364.649-.36-.41.002-.871.05-1.025.105m11.463.315c4.225 1.183 6.894 3.253 8.52 6.605 1.602 3.304 1.632 3.671 1.635 20.384l.004 14.293-.513.069-.513.07.522.151c.286.084.563.11.614.059.165-.164.074-30.779-.092-30.884-.088-.056-.203-.437-.256-.848-.142-1.09-.421-2.049-.827-2.841-.969-1.891-1.286-2.404-1.678-2.717-.234-.187-.426-.453-.426-.592 0-.304-1.458-1.585-1.804-1.585-.136 0-.246-.07-.246-.155 0-.085-.231-.274-.513-.419a4.978 4.978 0 0 1-.874-.591c-.199-.179-.492-.328-.652-.33-.16-.002-.501-.168-.757-.369-.291-.227-.76-.366-1.247-.368-.43-.003-.833-.088-.897-.191-.063-.102-.425-.18-.803-.172-.575.011-.442.082.803.431m-117.241.114c-.064.102-.257.188-.431.19-.173.003-.818.252-1.433.555-.615.303-1.223.553-1.351.555-.129.003-.233.097-.233.211 0 .113-.124.159-.275.101-.151-.058-.34-.003-.419.123-.08.125-.501.394-.935.598-.435.203-.791.461-.792.573-.002.112-.4.532-.886.932-1.264 1.043-3.59 3.695-3.59 4.093 0 .055-.168.279-.373.499-.205.221-.373.511-.373.645s-.083.244-.186.244c-.102 0-.186.127-.186.283 0 .155-.082.427-.181.605-.297.532-.74 2.04-.849 2.887-.074.584.062.327.52-.979 2.043-5.821 6.03-9.737 12.065-11.849 1.026-.359 1.121-.427.618-.439-.327-.007-.647.07-.71.173m49.208 0c-.064.102-.279.186-.48.186-.2 0-.51.077-.688.171-.793.42-2.115.948-2.372.948-.155 0-.281.083-.281.186 0 .102-.11.186-.245.186-.134 0-.424.168-.644.373-.22.205-.479.373-.575.373-.095 0-.593.377-1.107.839-.513.461-1.025.838-1.139.838-.114 0-.563.461-.998 1.025-.435.563-.896 1.025-1.024 1.025s-.214.064-.191.141c.022.076-.334.755-.793 1.508-1.155 1.898-1.202 1.997-1.684 3.571-.235.769-.485 1.482-.556 1.584-.698 1.018-1.072 8.759-.575 11.929.112.718.257 1.724.321 2.237.064.513.181 1.016.259 1.118.079.103.334.732.567 1.398.515 1.472.966 2.461 1.572 3.449.252.41.462.894.466 1.076.005.182.202.404.438.494.237.09.661.467.944.837.282.37.988 1.029 1.569 1.463.581.434 1.301 1.02 1.601 1.302.299.282.652.513.783.513s.377.138.546.307c.169.169.615.369.992.446.376.076 1.271.348 1.989.603a23.65 23.65 0 0 0 2.703.747c3.011.608 4.588.881 5.091.88.289-.001.666.067.839.151.405.197 6.921-.228 8.142-.53a13.735 13.735 0 0 1 1.491-.287c2.502-.255 3.006-.338 3.169-.522.337-.381 1.506-.683 2.145-.556.528.106.603.079.502-.185-.067-.175-.028-.309.091-.309.115 0 .469-.197.786-.437.835-.633 1.928-1.112 2.253-.987.176.067.281 0 .281-.182 0-.405 1.285-1.61 1.592-1.492.148.056.217.002.166-.13-.048-.126.291-.646.754-1.156.463-.51.842-1.016.842-1.123.001-.107.384-.778.853-1.491.469-.713.899-1.529.956-1.813.057-.284.177-.561.266-.617.09-.055.163-.261.163-.457 0-.197.167-.632.372-.968.204-.335.372-.81.373-1.054 0-.245.084-.769.187-1.165l.384-1.48c.347-1.33.538-1.291-6.381-1.291h-6.138l-.27.646c-.149.356-.27.804-.27.996 0 .364-1.413 2.691-1.7 2.8-.09.034-.164.165-.164.29 0 .277-1.151 1.419-1.431 1.419-.11 0-.304.124-.43.275-.271.327-1.26.843-1.616.843-.138 0-.251.084-.251.186 0 .239.059.235.69-.042 2.486-1.09 4.133-2.946 5.092-5.736.23-.666.443-1.241.475-1.278.032-.037 2.727-.058 5.988-.047l6.086.02c.575.001-1.305 6.187-2.332 7.671-.188.273-.342.55-.342.616 0 1.338-4.567 5.568-7.269 6.733-.359.155-.82.356-1.025.446-4.414 1.949-15.067 2.372-21.156.84-6.548-1.647-10.772-5.383-12.744-11.273-1.968-5.882-1.596-14.839.806-19.385 1.313-2.485 1.567-2.832 3.442-4.708 2.151-2.15 4.561-3.628 7.657-4.694.896-.308 1.148-.453.803-.463-.275-.007-.553.07-.616.173m36.157.004c-.062.1-.263.182-.446.182-.534 0-.574 1.544-.575 22.039l-.001 18.963.667.278c.367.154.849.274 1.072.268.222-.006 2.292.049 4.598.121 3.297.103 4.374.077 5.033-.121.909-.274-5.32-.584-8.574-.426-.769.037-1.629.02-1.911-.039l-.512-.106v-40.774l.612-.114c.337-.064.694-.099.792-.08.297.058 1.273-.004 1.19-.076-.208-.179-1.846-.275-1.945-.115m3.777.321c.846.034 2.23.034 3.076 0 .846-.035.154-.063-1.538-.063-1.691 0-2.383.028-1.538.063m-339.189 1.287c-1.785 1.265-1.272 4.079 1.218 6.682.588.615 1.193 1.307 1.345 1.538.152.231.384.419.517.419.132 0 .573.279.981.619 3.359 2.807 9.481 4.065 11.596 2.383.621-.494.644-3.046.037-4.232-.573-1.12-3.758-4.297-4.747-4.734-.463-.205-.892-.503-.953-.663-.061-.16-.679-.54-1.371-.844-.693-.305-1.406-.635-1.584-.735a1.625 1.625 0 0 0-.67-.181c-.19 0-.833-.168-1.429-.373-1.636-.563-4.058-.503-4.94.121m257.261 6.78c-3.384.886-5.826 3.121-7.022 6.425-.611 1.689-.631 2.121-.075 1.603.231-.215.35-.491.285-.66-.061-.159-.044-.29.039-.29.082 0 .151-.23.153-.512.005-.666.985-2.324 1.513-2.561.226-.101.379-.269.341-.373-.185-.506 1.155-1.881 1.693-1.738.361.097.959-.257.862-.51-.058-.15.003-.27.137-.27.132 0 .609-.178 1.058-.396.583-.282 1.027-.367 1.55-.297.418.056.784.014.853-.097.081-.13.813-.151 2.19-.064 1.139.071 2.418.122 2.843.112.769-.019 1.81.427 2.582 1.106.205.18.709.511 1.12.736.524.287 1.054.869 1.766 1.938.56.841 1.083 1.556 1.163 1.591.08.034.145.212.145.396 0 .701.333.739 6.721.762l6.233.022.055-.442c.031-.243-.032-.649-.138-.901-.173-.411-.189-.381-.148.287l.045.745-6.1.05-6.1.049-.496-.981c-2.528-5.006-7.627-7.208-13.268-5.73m-48.034.676c-.876.138-3.15.827-3.346 1.014a.714.714 0 0 1-.427.169c-.88 0-3.997 3.107-4.789 4.774-1.049 2.207-1.507 6.358-.888 8.058.099.273.293.873.431 1.334.917 3.07 5.38 7.613 6.686 6.805.302-.186.218-.467-.102-.344-.363.139-2.219-.782-2.651-1.315a4.175 4.175 0 0 0-.827-.72c-.524-.337-1.753-2.055-2.212-3.09-.143-.325-.324-.59-.402-.59-.077 0-.141-.205-.141-.455s-.075-.501-.166-.558c-.463-.286-.684-5.439-.298-6.934.392-1.521 1.866-3.824 2.22-3.469.06.059.108-.053.109-.249 0-.197.254-.609.566-.917.311-.307.75-.753.975-.99.589-.62 1.511-1.153 1.993-1.153.228 0 .638-.116.91-.257 1.249-.648 2.15-.886 3.477-.916.797-.018 3.418.391 3.728.582.102.063.27.12.373.125 1.301.072 4.566 2.26 4.566 3.061 0 .11.113.201.25.201s.345.209.462.466c.117.256.298.466.403.466.104 0 .19.162.19.361 0 .199.074.408.163.463.09.056.163.316.163.58 0 .264.179.669.396.901.309.328.396.657.396 1.484 0 .584.101 1.224.225 1.421.177.284.169.569-.036 1.349-.144.544-.24 1.422-.215 1.951.025.529-.042 1.016-.15 1.083-.108.067-.196.327-.196.579 0 .251-.075.603-.165.781a31.75 31.75 0 0 0-.601 1.349c-.818 1.924-4.497 4.846-6.102 4.846-.209 0-.431.084-.495.186-.342.554 2.277-.387 3.635-1.307 1.86-1.259 3.445-3.426 3.951-5.403.736-2.874.872-5.274.432-7.642-.957-5.15-6.856-8.965-12.491-8.08m146.598 1.191c-4.62.579-7.554 3.646-8.376 8.753-.254 1.577-.259 2.62-.012 2.237.1-.154.182-.8.184-1.436.001-.636.08-1.349.175-1.584.095-.236.284-.836.42-1.335.135-.498.506-1.211.824-1.584.318-.373.675-.972.793-1.331.238-.72 1.686-1.824 1.912-1.457.157.253.539.029.539-.315 0-.316.976-1.056 1.864-1.413 1.829-.737 7.822-.072 7.492.831-.031.085.221.3.559.478 1.194.627 2.353 3.013 1.793 3.689-.161.193-.095.37.286.767l.494.516v24.223l.792.219c.913.252 9.69.395 10.345.168.973-.336.154-.396-4.66-.342-2.793.032-5.352.007-5.685-.055l-.606-.112v-12.297c0-14.843-.005-14.88-2.272-17.076-1.339-1.297-4.018-1.9-6.861-1.544m-73.745.412c.054.128.285.819.513 1.536.432 1.355.759 1.38.353.027-.401-1.341-.6-1.796-.784-1.796-.099 0-.136.105-.082.233m-44.852 3.681c-.514 2.171-.733 8.399-.349 9.93.097.387.135.86.085 1.052-.05.191.045.588.212.881l.303.532-.089-.745c-.552-4.615-.588-8.654-.095-10.612.113-.447.169-.969.124-1.159-.066-.283-.1-.262-.191.121m12.286 3.309c-.43 2.601.173 7.144 1.219 9.188 1.038 2.028 4.146 4.745 5.045 4.409.147-.055.095-.135-.139-.216a5.56 5.56 0 0 1-.746-.335 27.194 27.194 0 0 0-.839-.443c-.752-.382-2.332-2.163-2.265-2.556.034-.202-.022-.299-.132-.231-.233.144-1.012-1.2-1.287-2.221-.11-.41-.298-1.113-.416-1.561-.12-.452-.217-2.138-.219-3.775-.003-3.104-.032-3.403-.221-2.259m-129.293.59c-.361.071-.99.303-1.398.515-.408.212-1.162.585-1.675.827-.512.243-1.024.526-1.136.629-.113.104-.809.733-1.547 1.399-.738.667-1.464 1.464-1.614 1.771-.15.308-.487.853-.75 1.212s-.525.883-.581 1.165c-.057.282-.166.512-.242.512-.56 0-.599 4.993-.047 6.067 1.36 2.647 4.399 4.074 7.932 3.726.737-.073 1.424-.194 1.527-.27.102-.077.606-.29 1.118-.475 1.235-.444 2.658-1.19 3.384-1.773.323-.259.922-.711 1.331-1.004.408-.293.85-.734.981-.979s.308-.446.394-.446c.085 0 .154-.129.154-.287 0-.158.179-.472.397-.699.611-.636 1.459-2.571 1.658-3.788.987-6.024-3.159-9.421-9.886-8.102m4.942.268c3.423.912 5.339 4.052 4.566 7.483a68.43 68.43 0 0 0-.317 1.483c-.06.303-.348.882-.641 1.286-.293.404-.532.844-.532.976 0 .26-2.83 3.187-3.448 3.567-1.357.833-2.728 1.516-3.449 1.718-.461.129-1.031.31-1.267.402-1.277.498-4.55.056-6.298-.851-.515-.267-1.682-1.733-2.22-2.789-.419-.821-.533-4.32-.157-4.796.109-.138.248-.46.31-.717 1.104-4.629 8.721-9.023 13.453-7.762m145.58 5.7c-.158.304-.278.704-.267.888.01.185.109.054.219-.289.316-.988.474-1.007 6.769-.837l5.761.157-.045.745c-.041.668-.025.698.148.287a2.19 2.19 0 0 0 .138-.932l-.055-.473-6.191-.049-6.192-.049-.285.552m-.749 1.937c-.17.358-.471.797-.669.976-.197.179-.359.466-.359.637 0 .396-.799 1.156-1.14 1.084-.142-.031-.234.058-.205.197.096.456-1.689 1.705-2.438 1.705-.153 0-.326.126-.385.279-.059.154-.315.28-.568.28-.254 0-.521.096-.593.213-.578.935 3.434-1.133 4.68-2.412.967-.992 2.325-3.27 2.09-3.505-.058-.057-.244.188-.413.546m12.856.172c-.116.563-.431 1.589-.759 2.47-.11.295-.039.268.342-.133.373-.392.51-.779.612-1.724.136-1.278.019-1.649-.195-.613m-45.366 1.107c-.01.379.065.74.168.803.102.064.186.32.186.571 0 .25.091.455.203.455.133 0 .159.255.077.745-.12.706.12 1.064.342.513.052-.128.101.039.109.372.008.334.108.606.223.606.119 0 .171.192.122.449-.055.29-.009.42.129.367.119-.046.539.47.934 1.146.905 1.546 1.798 2.57 2.884 3.305 1.068.722 2.541 2.051 2.479 2.236-.025.076.205.139.513.139.308 0 .559.066.559.147 0 .081.181.16.403.177.221.017.469.139.551.272.083.134.393.215.698.183.301-.031.603.032.671.141.067.109.322.199.566.199.244 0 .489.073.544.161.055.089.5.221.99.292 1.511.221 2.717.444 3.592.663.461.116 1.174.249 1.584.295a7.58 7.58 0 0 1 1.518.38c.707.269.811.269 1.234-.009.373-.244.942-.298 2.956-.281 1.371.012 2.745-.026 3.053-.083.307-.058 1.398-.28 2.423-.493a62.128 62.128 0 0 1 2.596-.493c.402-.058.989-.262 1.305-.454.315-.192.72-.35.901-.35.38-.001.614-.111 3.052-1.432.63-.34 1.279-.619 1.443-.619.165 0 .404-.168.532-.373s.329-.373.446-.373c.117 0 .259-.176.315-.391.06-.228.19-.338.311-.263.126.078.296-.101.427-.448.119-.317.352-.619.516-.671.544-.173 1.13-.853 1.024-1.187-.056-.177.022-.485.173-.684.151-.2.277-.51.28-.69.003-.179.092-.326.197-.326.104 0 .282-.203.396-.451.12-.265.311-.411.462-.353.141.054.256.006.256-.108 0-.113-.072-.206-.161-.206-.088 0-.121-.204-.074-.453.061-.317.174-.419.377-.341.231.088.266.019.17-.34a4.153 4.153 0 0 1-.129-.73c-.005-.154-.418.559-.918 1.584-1.215 2.491-2.788 4.545-4.733 6.179-5.67 4.766-21.913 5.554-30.005 1.457-4.361-2.208-7.028-5.679-8.66-11.27l-.191-.653-.019.688m27.65 1.322c-.248.647.442.941.969.413.249-.248.241-.279-.069-.279-.192 0-.447-.098-.566-.218-.166-.166-.245-.146-.334.084m-57.823 2.755c.644.376 3.175.61 4.712.436l1.491-.168-2.606-.052c-1.433-.029-2.687-.134-2.787-.233-.099-.1-.394-.179-.656-.175-.407.004-.429.032-.154.192m49.073-.012c.518.223.883.223.746 0-.064-.102-.341-.18-.617-.173-.448.012-.462.03-.129.173m48.928-.03c1.159.739 8.872.638 8.127-.107-.06-.06-.425-.006-.81.121-.731.241-5.922.194-7.037-.064-.387-.089-.473-.074-.28.05m-47.064.414c.41.085 1.375.154 2.144.154.769 0 1.733-.069 2.143-.154.517-.107-.143-.154-2.143-.154-2.001 0-2.66.047-2.144.154m88.658 9.433c-.139.15-.2.325-.137.388.156.156.541-.247.456-.478-.037-.101-.18-.061-.319.09m-81.202.435c-.069.112.168.185.595.183.527-.002.638-.049.43-.183-.364-.236-.88-.236-1.025 0m48.824.017c-.057.093.11.169.373.169.571 0 .617-.106.104-.24-.205-.054-.419-.021-.477.071m-190.091.835c-2.952 1.081-4.893 2.585-5.564 4.31-.653 1.675-.712 3.481-.139 4.211.206.261.428.741.493 1.066.065.325.253.629.418.676.164.047.719.282 1.231.521 1.819.848 3.549 1.289 4.44 1.133.326-.057 1.316-.174 2.2-.26.884-.086 1.882-.293 2.219-.461.336-.168.766-.305.956-.305.189 0 .344-.071.344-.157 0-.087.39-.358.867-.604.933-.479 2.664-2.148 2.67-2.574.002-.142.142-.359.31-.482.553-.405.582-2.848.045-3.922-.664-1.33-2.875-3.072-3.899-3.072-.189 0-.396-.084-.459-.187-.185-.298-5.267-.21-6.132.107m5.666.213c6.595 1.352 5.874 8.83-1.025 10.639l-1.513.397c-1.606.421-4.306.058-6.005-.806-3.675-1.87-3.72-5.981-.093-8.454 1.641-1.118 2.067-1.298 4.442-1.879.842-.206 2.937-.155 4.194.103m152.287.985-1.209.093-.154.928c-.085.511-.242.982-.348 1.048-.125.077-.089.317.105.693.265.511.297 2.149.297 14.837 0 15.334-.029 14.842.876 14.516.123-.044.328.087.455.291.229.366.237.366.687.012.295-.231.749-.358 1.286-.358.75 0 .849-.053 1.04-.559.124-.328.346-.559.538-.559.218 0 .289.095.215.289-.089.232-.015.265.378.166.308-.078.49-.046.49.083a.21.21 0 0 0 .212.207c.117 0 .306.113.42.25.822.993 5.817.96 7.714-.051.53-.283 1.053-.446 1.3-.407.128.021.233-.08.233-.224 0-.144.587-.813 1.305-1.486.717-.674 1.304-1.295 1.304-1.382 0-.087.252-.643.559-1.236.308-.593.56-1.241.56-1.44 0-.199.074-.361.166-.361.636 0 .636-9.778-.001-10.171-.091-.057-.165-.233-.165-.391 0-1.194-3.122-5.282-4.033-5.282-.14 0-.254-.074-.254-.164 0-.091-.189-.21-.42-.265a28.1 28.1 0 0 1-.885-.23c-.256-.072.037.127.652.442 7.516 3.849 7.436 18.287-.122 22.008-3.272 1.61-7.148 1.24-9.499-.908-.879-.802-1.067-.733-1.133.413l-.057.978-1.602.054c-1.196.04-1.657-.013-1.818-.207-.161-.194-.204-4.235-.169-15.804l.048-15.543 2.004-.053 2.003-.053v5.319c0 2.925.058 5.318.128 5.318s.301-.162.513-.36c.211-.197.883-.659 1.492-1.025.609-.366 1.01-.665.891-.665-.242 0-1.364.603-2.12 1.14-.273.193-.547.351-.61.351-.064 0-.106-2.232-.094-4.96.025-5.953.263-5.557-3.178-5.292m70.919 0-2.051.093-.103 2.237c-.083 1.786-.052 2.274.155 2.423.143.103.433.333.645.513.507.429 1.425.408 2.006-.047.256-.2.648-.366.87-.368.947-.01.965-.06.882-2.479-.091-2.695.12-2.487-2.404-2.372m-11.188.194c-.165.266-.108 31.553.058 31.698.299.263 1.34.511 1.443.344.132-.213 2.375-.016 2.524.222.374.594.448-2.479.404-16.754l-.049-15.704h-2.13c-1.27 0-2.179.078-2.25.194m4.198 15.739v15.747l-.419.105c-.231.058-1.133.081-2.004.05l-1.584-.055-.049-15.564c-.026-8.56-.008-15.668.041-15.796.063-.166.653-.233 2.052-.233h1.963v15.746m9.133-13.51v2.237h-4.1v-2.112c0-2.549-.174-2.361 2.174-2.361h1.926v2.236m-41.91 5.651c-.201.243.003.289 1.595.364 1.004.047 2.035.145 2.291.217.406.114.422.103.124-.086-.309-.196-1.202-.389-3.117-.674-.456-.068-.734-.012-.893.179m-23.323.154c-.561.093-1.106.263-1.211.378-.139.152-.09.168.181.059.205-.083.981-.188 1.723-.234.742-.046 1.304-.158 1.247-.25-.12-.195-.545-.184-1.94.047m45.536.034c-.326.121-.662.295-.746.389-.091.101-.003.105.22.011.205-.087.855-.192 1.445-.233.59-.041 1.025-.151.967-.244-.143-.231-1.164-.189-1.886.077m34.422-.06c-.337.107-.13.15.746.154.836.004 1.096-.044.839-.154-.458-.197-.971-.197-1.585 0m-76.701.284c.636.293 1.196.362.923.113-.097-.089-.471-.209-.829-.267l-.653-.104.559.258m17.894.088c-.132.215.17.215.839 0 .445-.142.439-.15-.129-.167-.327-.011-.646.065-.71.167m27.214 0c.557.24 1.023.24.652 0a1.343 1.343 0 0 0-.652-.17l-.373.01.373.16m29.45 0c-.133.215.169.215.839 0 .445-.142.439-.15-.129-.167-.327-.011-.647.065-.71.167m5.032 0c.521.224 1.071.224.932 0-.063-.102-.382-.18-.71-.173-.501.011-.536.038-.222.173m-63.311.543c-.376.188-.934.52-1.241.738-.306.218-.635.397-.732.397-.319 0-2.022 1.765-2.293 2.379-.147.332-.331.603-.408.603-.078 0-.141.163-.141.362 0 .199-.084.414-.187.477-.102.063-.185.257-.184.43.002.174.333-.28.736-1.007.924-1.665 2.475-3.118 4.303-4.031.764-.382 1.264-.693 1.11-.692-.154.001-.587.156-.963.344m8.885-.038c3.098 1.243 5.325 4.143 6.123 7.976.043.205.087.021.099-.408.012-.43-.062-.833-.165-.897-.102-.063-.186-.315-.186-.559 0-.244-.084-.496-.186-.559-.103-.063-.188-.299-.189-.523-.003-.775-2.383-3.644-3.392-4.091-.286-.126-.52-.293-.52-.371 0-.077-.126-.141-.28-.141-.153 0-.279-.084-.279-.186 0-.103-.163-.187-.362-.187-.199 0-.414-.083-.477-.186-.063-.102-.299-.182-.524-.177-.291.007-.194.096.338.309m9.83 11.253-.045 11.665.637.196c.382.117.96.136 1.445.046.444-.082 1.024-.106 1.289-.053.712.14 1.101-.351 1.109-1.398.065-9.624.148-13.511.304-14.199.452-2.003 1.181-2.965 2.253-2.976.333-.003.605-.08.605-.17 0-.255 1.471-.579 1.61-.355.063.103 0 .261-.141.351-.142.089-.193.164-.115.165.079.002.298-.094.489-.213.281-.176.454-.14.922.194l.576.41.38-.381c.209-.209.474-.38.589-.38.151 0 .149-.073-.008-.261-.148-.179-.154-.283-.018-.328.109-.036.232-.359.273-.717.04-.358.162-.986.269-1.397.266-1.016-.671-2.259-1.26-1.671-.051.052.174.194.501.318.607.229.877 1.249.407 1.54-.103.063-.187.265-.187.448 0 .335-.463 1.407-.789 1.827-.136.175-.327.168-.858-.032-1.743-.655-3.107-.496-4.236.495-1.598 1.403-1.745 2.307-1.765 10.909-.02 8.263.197 7.545-2.258 7.469l-1.743-.054-.096-11.556-.095-11.556-.044 11.664m3.579-11.402c.058.093.116.64.129 1.216.031 1.338.177 1.407.92.433.333-.436.865-1.029 1.182-1.316l.576-.524-.559.278a5.3 5.3 0 0 0-1.064.757c-.517.49-.824.632-.607.28.149-.241-.263-1.293-.507-1.293-.096 0-.127.076-.07.169m19.225-.009c-.123.2-.169 22.954-.046 23.077.446.447 4.406.27 4.415-.197.095-4.895-.018-23.04-.144-23.04-.077 0-.118 5.156-.091 11.459l.05 11.459-.422.105c-.233.059-1.135.082-2.007.051l-1.584-.055-.048-11.358c-.038-8.963.001-11.389.186-11.507.171-.108.174-.149.013-.151-.123-.002-.267.069-.322.157m8.776-.036c-.068.068-.124 5.21-.124 11.426 0 11.793-.003 11.749.784 11.749.186 0 .476.161.644.358.271.316.353.328.702.099.218-.142.801-.298 1.296-.347.496-.048.939-.126.986-.173.046-.047.077-2.169.069-4.717-.018-5.172.272-10.744.609-11.705.276-.784 1.539-2.174 1.863-2.049.133.05.441-.121.686-.382.919-.979 4.663-1.044 4.663-.081 0 .116.119.165.264.11.345-.133 1.413.892 1.413 1.357 0 .198.073.405.162.46.321.198.425 2.154.383 7.191l-.061 7.331c-.019 2.407-.008 2.434 1.101 2.633.41.074.842.215.962.313.139.116.259.11.337-.016.066-.108.43-.197.808-.198.379-.002.879-.054 1.111-.116l.423-.113-.064-8.785c-.066-9.019-.123-9.773-.865-11.394-.546-1.193-2.194-2.776-2.774-2.664-.224.043-.124.176.361.475 2.801 1.732 3.124 3.239 3.144 14.685.015 8.213.206 7.541-2.139 7.541-2.345 0-2.153.701-2.13-7.758.025-8.993-.063-9.761-1.252-10.95-2.218-2.219-6.852-1.358-8.357 1.553-.616 1.193-.717 2.373-.826 9.7l-.109 7.362-1.743.054c-1.125.035-1.836-.023-2.004-.162-.366-.304-.393-22.641-.028-22.788.13-.052.144-.1.031-.109a.476.476 0 0 0-.326.11m3.759 1.18c.073 1.541.004 1.51 1.159.513.505-.436 1.359-1.021 1.899-1.301.539-.279.88-.51.756-.512-.237-.005-1.203.387-1.36.552-.258.269-1.631 1.121-1.807 1.121-.261 0-.43-.445-.43-1.133 0-.3-.063-.544-.139-.545-.077 0-.112.587-.078 1.305m-73.781 1.754c-1.941.521-3.593 1.976-4.224 3.719-2.196 6.062.179 13.442 4.294 13.338.659-.016.524-.088-.481-.256-.812-.136-2.51-1.408-2.762-2.07-.095-.25-.242-.455-.327-.455-.174 0-.862-1.768-.9-2.315-.014-.196-.13-.912-.258-1.589-.234-1.242-.209-1.894.157-4.114.261-1.581.691-2.782 1.151-3.21.202-.188.368-.465.368-.615 0-.24.236-.359.446-.226.041.026.23-.087.42-.251.19-.164.491-.349.669-.412.177-.063.282-.223.232-.355-.142-.372 1.355-.892 2.569-.892.588 0 1.069.08 1.069.177 0 .098.304.262.675.364 1.023.283 1.962.979 1.862 1.381-.047.185.032.382.176.437.402.155 1.209 1.96 1.415 3.17.352 2.055.362 2.769.062 4.536l-.402 2.377c-.055.333-.159.605-.23.605-.071 0-.334.419-.585.931-.251.512-.582.972-.736 1.023-.154.051-.489.283-.746.517-.461.419-1.609.978-2.329 1.134-.279.06-.248.085.124.102 5.812.252 7.483-12.702 2.112-16.377-.658-.45-1.067-.581-2.609-.837-.205-.034-.75.039-1.212.163m23.299-.005c-2.766.564-5.395 3.397-5.182 5.586l.057.587h12.488l-.04-.745c-.143-2.692-2.029-4.778-4.949-5.474-1.003-.239-.977-.239-2.374.046m2.939.636c.041.124.196.225.345.225.148 0 .318.126.377.28.12.314.626.384.626.087 0-.106.358.077.795.407.793.597 1.629 1.902 1.629 2.542 0 .185.098.436.218.556.368.368-.093 1.089-.785 1.227-1.067.214-10.523.14-10.746-.084-.501-.5.303-2.656.946-2.537.114.021.208-.129.208-.335 0-1.026.837-1.729 2.566-2.156.489-.121.94-.302 1.002-.402.162-.263 2.725-.09 2.819.19m-11.989 2.761c-.062.194-.19.546-.284.781-.095.236-.164.697-.155 1.025.012.443.103.26.353-.707.304-1.174.366-1.977.086-1.099m-.711 2.916c-.166.62-.136 4.482.037 4.755.082.129.154-.983.16-2.47.012-2.79-.006-2.997-.197-2.285m21.432 1.276c.103 1.356.076 1.729-.133 1.861-.143.091-4.018.167-8.611.169l-8.351.002.126 1.165c.347 3.217 3.254 6.35 5.816 6.269.689-.021.687-.023-.16-.166-2.492-.422-4.992-3.041-5.004-5.243-.012-2.018-.102-1.838.914-1.838.502 0 1.138.086 1.413.19.346.132.574.13.739-.007.191-.159 5.95-.168 8.104-.014.154.011 1.228-.021 2.388-.072 1.697-.073 2.193-.035 2.545.196.342.223.47.235.581.054.079-.127.054-.262-.056-.298-.109-.037-.164-.21-.121-.384.212-.863.153-3.58-.078-3.58-.187.001-.212.372-.112 1.696m-193.963-.281c-1.118.199-2.586.766-3.446 1.331-.511.335-1.015.613-1.118.616-1.609.057-2.697 4.504-1.462 5.973.136.162.248.42.248.573 0 .801 2.148 1.872 4.437 2.213 3.046.453 7.166-.864 7.737-2.475.064-.179.223-.326.355-.326.396 0 1.077-1.951 1.077-3.087 0-3.093-3.932-5.513-7.828-4.818m172.721 4.779c-.06.228.007.591.147.805.141.215.316.874.39 1.464.079.635.239 1.113.39 1.172.141.054.257.209.257.345 0 .136.532.787 1.182 1.447.65.66 1.235 1.338 1.3 1.505.064.168.308.383.541.477l1.033.417c.334.136.572.341.528.456-.052.134.183.202.658.189.407-.01.799.073.871.185.176.274 7.121.347 7.121.075 0-.106.283-.192.629-.192.348 0 .74-.132.875-.295.168-.203.416-.262.788-.188.43.086.521.051.437-.168-.059-.152-.047-.264.027-.249.269.056.78-.262.68-.424-.057-.091.405-.665 1.026-1.275.621-.609 1.129-1.231 1.129-1.382 0-.151.063-.303.14-.337.278-.124.979-1.693.971-2.177-.006-.384-.106-.259-.448.563-1.696 4.083-4.589 5.84-9.609 5.836-5.835-.005-9.602-2.711-10.623-7.631-.239-1.152-.284-1.215-.44-.618m16.528 1.029c-.309.385-.669.995-.799 1.356-.348.964-1.898 2.017-3.548 2.412l-.653.156.591.018c1.507.048 3.492-1.471 4.432-3.393l.52-1.061h.879c1.128 0 3.039.376 3.239.637.099.13.128.107.081-.065-.115-.426-1.241-.729-2.767-.744l-1.414-.015-.561.699" fill="#000000"/><path d="M168.034 52.377c-.064.102-.316.186-.562.186-1.696 0-4.421 1.96-5.959 4.287-1.225 1.853-1.635 3.429-1.527 5.871.204 4.634 2.957 8.088 7.65 9.598.857.275 5.042.181 5.617-.126.205-.11.907-.44 1.56-.734.653-.293 1.571-.89 2.04-1.327.468-.436.92-.794 1.002-.794.083 0 .151-.088.151-.197 0-.109.244-.507.543-.885.515-.653 1.034-1.682 1.475-2.925.991-2.799-.09-7.332-2.32-9.726-.449-.483-.819-.924-.821-.981-.011-.276-3.278-1.828-4.536-2.155-1.206-.314-4.138-.377-4.313-.092m-27.68 16.694c-11.975 2.102-17.108 15.364-9.627 24.871.524.667 1.081 1.308 1.236 1.426.156.117.493.399.749.625 1.251 1.105 3.393 2.286 5.033 2.775.461.138 1.084.341 1.385.452 1.284.473 6.576.202 8.214-.422 14.152-5.386 13.875-24.383-.425-29.202-1.328-.447-5.229-.759-6.565-.525m65.611.748c-2.688.683-5.527 1.988-6.897 3.172-2.587 2.233-3.458 3.344-4.258 5.428-1.165 3.035-.643 5.67 1.532 7.741.512.487.993.886 1.069.886.077 0 .25.105.386.234.301.287 2.571 1.07 3.102 1.07.211 0 .436.084.499.187.154.25 3.402.238 4.517-.016 2.03-.464 3.63-.934 3.861-1.135a.747.747 0 0 1 .423-.154c.135 0 .798-.335 1.473-.746.675-.41 1.289-.745 1.364-.745.795 0 4.561-4.524 5.042-6.058.129-.41.308-.891.398-1.069.234-.464.202-3.012-.047-3.629-1.105-2.745-3.049-4.411-6.062-5.196-1.295-.337-5.025-.32-6.402.03m-105.499 3.839c-2.565.71-3.349 1.079-4.922 2.317-2.392 1.881-3.839 4.75-3.839 7.609 0 1.816 1.515 5.126 3.014 6.588 6.421 6.262 17.706 4.283 20.249-3.55 1.029-3.169.018-7.136-2.409-9.455-.808-.771-1.646-1.491-1.737-1.491-.047 0-.446-.242-.887-.538-2.087-1.402-6.987-2.167-9.469-1.48m77.54 13.795c-.769.07-1.734.208-2.144.307-.41.099-1.02.241-1.355.316-.335.075-.655.209-.71.298-.055.09-.219.163-.365.163-.55 0-3.038 1.315-4.623 2.443-8.948 6.37-11.863 18.838-6.819 29.169.506 1.036 1.066 2.056 1.245 2.268.821.971.977 1.172.977 1.255 0 .154.617.84 1.678 1.867 2.041 1.975 3.689 3.112 5.965 4.112 2.592 1.139 3.887 1.414 7.12 1.512 7.905.239 14.949-4.176 18.613-11.67 1.233-2.521 1.399-2.971 1.859-5.048.125-.563.3-1.268.39-1.565.234-.776.201-7.024-.042-8.078-.739-3.194-.96-3.856-2.037-6.107-2.206-4.605-6.992-8.997-11.272-10.342-.41-.129-.891-.308-1.069-.398-.178-.09-.54-.164-.804-.164-.265 0-.622-.074-.795-.166-.421-.222-4.074-.331-5.812-.172m-58.062 18.342c-.205.049-1.002.22-1.771.381-4.272.895-8.296 3.467-11.445 7.315-1.034 1.265-3.28 5.365-3.28 5.99 0 .191-.084.4-.186.463-.103.063-.187.303-.187.533 0 .23-.075.497-.168.595-.412.434-.756 8.039-.416 9.217.104.359.285 1.072.404 1.584.261 1.127.485 1.797.948 2.841.193.434.351.867.351.961 0 .834 3.368 5.217 5.219 6.79 1.429 1.215 1.744 1.451 2.609 1.952.462.267.881.533.932.59.233.26 3.716 1.537 5.033 1.845 2.971.695 8.168.523 10.345-.342l1.677-.666c5.088-2.023 9.704-6.815 11.481-11.92.143-.41.312-.788.375-.839.063-.051.161-.345.216-.653a93.14 93.14 0 0 1 .352-1.77c.423-2.04.287-8.405-.205-9.6a15.31 15.31 0 0 1-.394-1.211c-.132-.461-.309-.919-.394-1.016-.085-.097-.154-.321-.154-.496 0-.818-2.448-4.592-4.183-6.45-1.757-1.882-2.839-2.682-5.603-4.146-2.961-1.568-8.92-2.573-11.556-1.948m36.999 30.299c-.359.103-.988.279-1.398.392-1.906.526-4.448 1.97-6.105 3.467-1.634 1.476-4.24 5.755-4.24 6.963 0 .245-.1.547-.223.67-.333.333-.321 6.027.015 7.12 1.372 4.461 3.232 7.032 6.846 9.46.649.436 1.267.792 1.374.792.107 0 .382.097.612.216.895.462 1.076.53 1.428.53.2 0 .411.075.467.166.262.423 5.476.728 6.796.398 3.009-.753 3.443-.924 5.425-2.133 3.396-2.072 5.682-5.244 6.864-9.522.491-1.779.415-5.524-.152-7.455a17.77 17.77 0 0 1-.318-1.259c-.054-.282-.173-.512-.264-.512-.091 0-.165-.151-.165-.336 0-.184-.076-.415-.169-.512-.093-.098-.398-.597-.676-1.109-1.575-2.896-5.504-6.07-8.475-6.845-.359-.093-.988-.261-1.398-.372-.99-.269-5.419-.353-6.244-.119m-64.775 13.285c-1.244.479-3.072 1.544-3.072 1.789 0 .087-.147.208-.326.269-.18.06-.619.506-.978.991-.358.484-.706.922-.773.974-.538.409-1.432 3.045-1.739 5.125-.5 3.394.819 9.019 2.429 10.354.148.123.269.335.269.472 0 .411 2.617 2.917 3.935 3.767 10.458 6.747 20.947-5.547 14.491-16.986-.395-.701-.719-1.334-.719-1.407 0-.501-3.6-3.728-4.946-4.433-2.779-1.455-6.217-1.822-8.571-.915m33.181 15.251c-.935.181-1.203.265-2.236.7-7.32 3.088-9.602 10.504-5.11 16.604 1.11 1.507 4.128 3.9 4.919 3.9.156 0 .284.066.284.146 0 .08.398.255.885.388.487.134 1.053.315 1.258.403.361.155 1.014.262 2.983.49 3.144.364 7.521-1.141 10.065-3.461 3.989-3.638 4.712-8.957 1.819-13.384-1.361-2.083-5.553-5.272-6.929-5.272-.114 0-.353-.074-.531-.166-1.051-.54-5.361-.743-7.407-.348m78.192 25.844c0 23.605.028 26.086.295 26.188.39.15 9.371.147 10.12-.003l.583-.117v-1.828c0-1.664.033-1.838.372-1.946.402-.127 1.119.034 1.119.251 0 .656 3.126 3.265 4.939 4.121 2.048.968 2.141.992 5.89 1.514 2.87.4 8.227-.163 10.699-1.123 3.777-1.467 7.476-4.472 9.038-7.342 1.885-3.465 2.495-5.527 2.794-9.443.736-9.654-3.196-17.52-10.604-21.213-.862-.43-1.717-.782-1.899-.782-.183 0-.384-.084-.447-.186-.063-.103-.357-.187-.652-.187-.296 0-.583-.073-.638-.162-.29-.469-8.584-.665-10.453-.247a84.32 84.32 0 0 1-1.54.331c-.334.067-.654.196-.71.286-.056.091-.275.165-.487.165-.334 0-1.006.305-3.134 1.421-.676.355-2.106 1.743-2.52 2.447-.783 1.33-.844.684-.835-8.77.004-4.326.006-8.222.003-8.658l-.003-.792h-11.93v26.075m69.108-13.853c-.074.074-.786.207-1.583.296-2.583.289-3.123.378-3.303.549-.097.092-.437.167-.755.167-.317 0-.657.067-.755.148-.097.082-.512.261-.922.398-5.255 1.756-9.692 5.909-11.466 10.731-.076.205-.232.607-.347.894-.115.286-.21.722-.21.967 0 .246-.073.492-.162.547-.638.394-.799 9.135-.225 12.223.105.564.245 1.341.31 1.726.065.386.193.747.284.804.092.056.166.266.166.466 0 .201.074.51.165.688.09.178.268.576.394.883.127.308.305.685.396.839.092.154.268.489.393.745 1.433 2.954 5.391 6.251 8.848 7.371.492.16 1.062.364 1.267.453.205.09.625.216.932.281l1.398.292c8.243 1.72 17.816.457 23.53-3.106 2.16-1.347 4.634-4.7 5.967-8.086.101-.257.257-.612.348-.79.091-.178.165-.479.165-.668 0-.189.06-.404.133-.478.205-.204.595-1.813.604-2.491l.008-.606H286.3v.429c0 .235-.067.508-.148.605-.082.098-.262.513-.4.923-.952 2.827-3.554 4.927-7.187 5.802-.863.208-5.118.153-6.058-.077a252.82 252.82 0 0 0-1.398-.34 5.343 5.343 0 0 1-1.139-.458l-1.026-.576c-1.897-1.068-3.591-3.843-4.194-6.867-.33-1.659-.085-7.87.321-8.121.092-.056.167-.266.167-.467 0-.2.074-.51.166-.688.091-.178.363-.743.605-1.255.374-.796 2.276-2.929 3.157-3.542.643-.448 1.832-1.025 2.111-1.025.167 0 .449-.074.627-.164.716-.364 2.196-.582 3.958-.582s3.242.218 3.958.582c.178.09.448.164.601.164 1.408 0 4.397 2.881 5.463 5.266l.479 1.071h11.866v-.708c0-.39-.069-.788-.155-.885-.085-.098-.257-.555-.381-1.016a13.456 13.456 0 0 0-.382-1.212c-.294-.703-1.039-2.237-1.132-2.33-.051-.051-.198-.282-.326-.512-.538-.968-.714-1.243-.979-1.528a22.037 22.037 0 0 1-.839-1.017c-.854-1.092-3.116-2.958-4.324-3.567-.594-.299-1.207-.638-1.361-.751-.153-.114-.782-.396-1.398-.628a72.167 72.167 0 0 1-1.491-.575c-.377-.156-.735-.241-2.423-.577-2.614-.52-10.044-.962-10.389-.617m49.005.017c-.068.068-.816.194-1.662.281-2.506.257-3.207.37-3.394.547-.097.092-.407.167-.688.167-.281 0-.562.084-.626.186-.063.103-.315.187-.559.187-.244 0-.496.083-.559.186-.063.103-.257.188-.43.189-.174.002-.945.319-1.714.705-5.397 2.709-8.9 7.166-10.066 12.806a59.064 59.064 0 0 1-.393 1.771c-.921 3.692.331 12.27 2.31 15.829 1.834 3.298 6.731 7.47 8.769 7.47.137 0 .309.058.38.13.148.147 2.214.743 3.474 1.001 5.107 1.047 14.865.738 18.173-.576.205-.082.96-.373 1.678-.648 4.361-1.671 7.343-4.764 9.446-9.797.722-1.727 1.536-4.743 1.359-5.031-.066-.106-2.444-.177-5.928-.177h-5.818l-.536 1.444c-.983 2.647-2.302 4.189-4.502 5.262-2.271 1.109-3.139 1.309-5.671 1.309-7.375 0-11.202-4.086-11.259-12.023-.041-5.711 2.443-10.217 6.32-11.461.41-.132.913-.306 1.118-.386 3.046-1.198 8.089-.516 10.653 1.441 1.271.969 3.233 3.327 3.233 3.884 0 .126.167.44.37.698l.37.47 5.549.029c6.698.035 6.366.14 5.808-1.851-1.649-5.885-5.557-10.151-11.444-12.489-1.666-.661-4.603-1.304-5.963-1.304-.45 0-.87-.084-.934-.186-.128-.207-6.66-.267-6.864-.063m51.878.566c-.461.036-1.006.137-1.211.226a12.56 12.56 0 0 1-1.212.389c-3.322.907-6.466 3.098-8.088 5.639-1.324 2.074-1.765 1.498-1.832-2.39l-.052-2.969-5.359-.05-5.359-.049-.02 1.074c-.09 4.788-.135 38.508-.052 39.055l.106.702 5.901-.049 5.901-.049.106-11.184c.069-7.347.177-11.439.314-11.929.114-.41.286-1.049.381-1.42.459-1.782 2.786-4.684 4.333-5.404 1.923-.895 2.188-.95 5.024-1.044 4.66-.154 6.655 1.165 7.67 5.071.311 1.198.34 2.32.343 13.654l.003 12.349h11.922l.111-.444c.217-.863.004-30.192-.222-30.591-.116-.205-.398-.994-.626-1.754-1.125-3.742-3.451-6.167-7.504-7.822-.282-.115-.701-.288-.932-.384-1.313-.548-6.405-.879-9.646-.627m-144.361 9.59c.41.107.891.271 1.069.363.178.093.534.168.792.168s.468.064.468.143c0 .078.352.295.782.481 4.836 2.095 6.651 10.198 3.682 16.431-.779 1.636-3.619 4.38-4.533 4.38-.155 0-.327.074-.383.165-.196.317-2.521.793-4.394.9-1.558.088-4.02-.225-4.213-.537-.053-.085-.238-.157-.411-.159-1.955-.025-5.615-3.701-6.659-6.689-3.288-9.409 4.385-18.109 13.8-15.646m67.856 35.186c-.144.233-.135 30.799.01 30.943.124.124 2.873.071 3.002-.058.049-.048.115-.45.147-.894.032-.443.067-.869.076-.946.03-.24.763-.152.775.093.014.293 1.425 1.332 2.464 1.813.892.414 4.223.819 4.505.548.097-.094.413-.171.701-.171.289 0 .67-.075.848-.167.178-.092.732-.365 1.231-.606 1.888-.911 3.734-3.044 4.575-5.284.23-.615.496-1.264.591-1.442.094-.178.17-.556.17-.839-.001-.283.097-1.162.217-1.953.351-2.304-.256-5.725-1.436-8.091-2.513-5.041-9.35-6.517-13.373-2.887-1.031.93-1.053.834-1.108-4.925l-.049-5.213-1.616-.053c-.933-.031-1.664.024-1.73.132m60.998.023c-.292.171-.316 1.315-.323 15.559l-.009 15.374h3.724v-15.451c0-13.917-.03-15.462-.295-15.564-.47-.18-2.75-.12-3.097.082m9.03-.072c-.165.067-.233.654-.233 2.021v1.927l.513.091c.281.05.764.068 1.071.039.308-.029.906-.063 1.329-.076l.769-.024.032-1.853c.029-1.674-.004-1.872-.338-2.05-.368-.198-2.701-.253-3.143-.075m-39.562 8.266c-.256.087-.843.266-1.305.396-1.771.502-3.158 1.491-4.804 3.426-.377.443-1.287 2.3-1.507 3.073a90.788 90.788 0 0 1-.412 1.411c-.237.781-.226 6.736.013 6.884.103.063.186.345.186.626s.067.59.149.688c.081.097.258.501.392.896 1.57 4.63 7.518 6.946 13.902 5.412 1.896-.456 4.486-3.042 5.47-5.466.486-1.195.462-1.222-1.243-1.384a76.646 76.646 0 0 1-1.604-.165c-.274-.036-.492.212-.894 1.016-2.439 4.875-9.326 4.857-11.788-.032-.584-1.161-1.297-3.963-1.067-4.193.055-.056 3.908-.101 8.561-.101h8.461l-.067-2.19c-.16-5.237-2.944-9.106-7.317-10.17-.989-.241-4.537-.329-5.126-.127m23.206.065c-.566.215-1.874 1.45-2.672 2.521-.605.814-.776.591-.776-1.014v-1.387h-3.355v22.554H347.623v-6.466c0-9.584.561-11.687 3.338-12.519.795-.238 2.496-.15 2.907.151.757.555 1.047.227 1.76-1.99.268-.835.085-1.357-.478-1.357-.142 0-.257-.084-.257-.187 0-.102-.247-.186-.548-.186-.302 0-.6-.084-.664-.186-.154-.249-2.278-.202-2.982.066m33.644-.073c-.154.103-.464.189-.69.19-.596.004-2.226.956-3.379 1.973-1.182 1.042-1.329.952-1.334-.805l-.002-1.165h-3.169v22.51l.512.099c.282.055 1.079.052 1.771-.005l1.258-.104.007-6.73c.008-8.705.242-10.05 2.015-11.588 2.169-1.882 5.987-1.877 7.644.01 1.067 1.215 1.123 1.721 1.161 10.423l.035 7.9 1.337.125c.735.069 1.562.069 1.838-.001l.502-.126v-8.715c0-8.526-.009-8.737-.407-9.719-.962-2.374-2.375-3.627-4.719-4.184-.947-.225-4.082-.288-4.38-.088m-17.521 11.47c0 10.61.019 11.278.326 11.291.18.007.788.037 1.352.066.563.029 1.255.012 1.537-.037l.513-.09V230.382h-3.728v11.277m-59.286-8.639c3.645 1.176 4.916 3.426 4.933 8.732.01 3.08-.066 3.482-1.038 5.523-2.336 4.904-8.98 4.299-10.803-.983-.658-1.905-.653-6.596.008-8.616 1.092-3.334 4.296-5.496 6.9-4.656m23.57-.005c2.825.773 4.36 2.346 5.087 5.21.393 1.548.717 1.471-6.297 1.509-7.053.037-6.778.088-6.623-1.221.428-3.619 4.432-6.429 7.833-5.498" fill="#000000"/><path d="M176.142 29.952c-5.676.629-8.848 4.361-7.043 8.284.453.983 1.957 2.771 2.332 2.771.105 0 .299.129.431.288.132.159.625.465 1.095.679 3.44 1.568 7.24 1.689 9.939.316.178-.091.451-.165.607-.165.669 0 2.842-2.478 3.173-3.619 1.346-4.63-4.333-9.242-10.534-8.554m-91.703 20.87c-5.472 1.076-7.97 6.203-4.972 10.207 2.027 2.708 6.886 4.348 10.375 3.5l1.398-.337c1.366-.325 3.538-1.989 4.259-3.263 3.128-5.526-3.509-11.591-11.06-10.107m82.383 1.625c-9.823 3.42-9.541 16.56.429 19.945 5.193 1.763 10.799-1.238 13.018-6.968.902-2.328.051-6.861-1.717-9.151-2.826-3.659-7.67-5.239-11.73-3.826m5.525.022c1.258.327 4.525 1.879 4.536 2.155.002.057.372.498.821.981 2.23 2.394 3.311 6.927 2.32 9.726-.441 1.243-.96 2.272-1.475 2.925-.299.378-.543.776-.543.885 0 .109-.068.197-.151.197-.082 0-.534.358-1.002.794-.469.437-1.387 1.034-2.04 1.327-.653.294-1.355.624-1.56.734-.575.307-4.76.401-5.617.126-4.693-1.51-7.446-4.964-7.65-9.598-.091-2.058-.031-2.417.722-4.38 1.043-2.714 4.63-5.778 6.764-5.778.246 0 .498-.084.562-.186.175-.285 3.107-.222 4.313.092m59.06 9.174c-6.641 1.602-8.937 7.552-4.608 11.948 1.045 1.061 3.734 2.644 4.491 2.644.177 0 .411.089.519.197.118.117 1.212.203 2.707.212 10.152.062 13.04-10.037 4.067-14.225-1.662-.776-5.468-1.188-7.176-.776m-91.576 7.294c-.236.067 1.022.123 2.796.125 1.867.002 2.872-.051 2.387-.126-1.051-.162-4.608-.161-5.183.001m-1.62.401-.373.16h.373c.205 0 .54-.072.745-.16l.373-.16h-.373c-.205 0-.54.072-.745.16m7.921 0c.154.1.406.181.56.181.248 0 .248-.02 0-.181a1.24 1.24 0 0 0-.56-.18c-.248 0-.248.02 0 .18m61.976 0c-.705.097-.39.135 1.289.157 1.222.017 2.187-.001 2.144-.038-.177-.155-2.569-.237-3.433-.119m-72.041.814c-4.327 1.912-8.87 7.667-8.749 11.086.006.17.287-.53.625-1.555 1.423-4.313 4.296-7.519 8.511-9.496 1.761-.826 1.465-.853-.387-.035m11.277-.446c.205.086.834.342 1.398.57 6.72 2.713 10.54 10.977 8.441 18.261-1.313 4.557-5.33 8.79-9.633 10.149-.194.061-.31.154-.257.207.126.126 2.27-.674 2.35-.878a.27.27 0 0 1 .231-.159c1.024 0 4.769-3.615 6.081-5.871 2.119-3.643 2.525-7.047 1.445-12.115-.791-3.713-5.103-8.532-8.898-9.944-1.014-.377-1.967-.558-1.158-.22m57.684.097c-9.109 2.502-13.935 11.118-9.095 16.236.968 1.023 2.017 1.75 2.017 1.397 0-.098-.154-.228-.341-.287-2.675-.849-4.108-5.32-2.799-8.73.8-2.084 1.671-3.195 4.258-5.428 1.37-1.184 4.209-2.489 6.897-3.172.708-.18.852-.259.466-.254-.308.003-.939.11-1.403.238m6.994-.092c.205.088.522.166.703.173.639.026 2.739 1.193 3.722 2.068.888.792 1.331 1.461 1.971 2.978.108.256.201.34.207.186.065-1.683-2.563-4.329-5.173-5.208-1.153-.388-2.216-.535-1.43-.197M99.814 73.55c-3.447.93-6.916 3.93-7.632 6.599-.069.256.152-.045.491-.669 1.49-2.743 3.754-4.658 6.418-5.43 1.841-.533 2.382-.611 4.193-.604 2.636.009 5.064.626 6.651 1.692.441.296.84.538.887.538.091 0 .929.72 1.737 1.491 4.043 3.862 3.662 10.532-.804 14.083-6.875 5.468-17.891 2.037-19.78-6.161-.071-.308-.168-.454-.215-.326-.166.451.733 2.76 1.556 3.999 4.109 6.184 14.001 7.216 19.276 2.012 4.733-4.671 3.83-11.599-2.024-15.527-.718-.482-1.423-.876-1.566-.876a.767.767 0 0 1-.437-.154c-.098-.085-.555-.262-1.016-.395a99.377 99.377 0 0 1-1.379-.405c-.817-.249-5.287-.155-6.356.133m118.862 3.293c-.02.796-.11 1.593-.2 1.771-.09.178-.269.659-.398 1.069-.498 1.587-3.756 5.499-5.026 6.034-.624.264-2.44 1.379-2.365 1.453.043.044.488-.145.987-.42 4.529-2.491 7.276-6.351 7.104-9.983l-.065-1.371-.037 1.447M91.84 81.081a3.764 3.764 0 0 0-.115.932c.012.401.039.379.194-.158.099-.344.151-.763.115-.932-.045-.218-.102-.171-.194.158m35.175 2.004c-.135 1.263.183 4.519.497 5.079.208.373.2.215-.106-1.924-.15-1.051-.216-2.38-.154-3.122.14-1.662-.059-1.69-.237-.033m51.084 4.07c-7.092 1.006-12.618 4.882-16.058 11.261-.989 1.835-2.324 5.632-2.069 5.886.054.054.203-.347.331-.89 1.067-4.536 4.536-9.606 8.506-12.432 1.585-1.128 4.073-2.443 4.623-2.443.146 0 .308-.07.36-.155.053-.085.582-.262 1.176-.394a32.632 32.632 0 0 0 1.695-.422c.805-.239 6.657-.209 7.115.036.195.104.57.189.835.189.264 0 .626.074.804.164.178.09.659.269 1.069.398 4.28 1.345 9.066 5.737 11.272 10.342 1.089 2.274 1.329 2.995 2.039 6.107.242 1.06.273 7.307.04 8.078-.09.297-.265 1.002-.39 1.565-1.413 6.383-5.733 11.941-11.554 14.865-.867.436-1.471.793-1.342.793.486 0 3.33-1.558 4.632-2.538 3.831-2.884 7.1-7.695 8.217-12.094.794-3.126.851-3.571.849-6.524-.004-3.865-.58-6.657-2.002-9.692-.368-.788-.67-1.463-.67-1.502 0-.039-.322-.569-.716-1.177-3.135-4.851-7.254-7.801-12.741-9.126-.93-.224-5.084-.428-6.021-.295m31.677.231c-.097.085-.554.261-1.016.392-.461.131-1.031.314-1.266.405a3.344 3.344 0 0 1-.932.181c-.278.007-.672.091-.877.187-.259.122-.088.141.559.062 1.597-.193 5.028-1.381 3.989-1.381a.805.805 0 0 0-.457.154m-11.537.381c.173.16 1.711.639 2.755.86.343.072.486.043.409-.083-.066-.106-.305-.194-.531-.194-.226 0-.87-.167-1.431-.372-1.109-.406-1.487-.472-1.202-.211m-70.544.863c-.086 1.569 2.702 5.785 5.049 7.634 1.942 1.531 6.018 3.433 6.443 3.008.051-.051-.148-.145-.442-.21-1.892-.416-4.573-1.779-6.033-3.069a15.965 15.965 0 0 0-.749-.625c-.997-.754-3.109-3.958-3.82-5.794-.241-.622-.442-1.047-.448-.944m75.054.23a10.75 10.75 0 0 0 1.585 0c.435-.04.079-.072-.793-.072-.871 0-1.227.032-.792.072m-56.71 10.301-.373.16h.373c.205 0 .541-.072.746-.16l.373-.16h-.373a2.27 2.27 0 0 0-.746.16m-5.871.401c1.11.173 3.818.172 4.753-.002.45-.083-.509-.136-2.423-.134-1.905.003-2.835.057-2.33.136m19.523 5.377c-.073.257-.125.802-.115 1.212l.018.746.168-.839c.202-1.005.147-1.878-.071-1.119m-40.586.751c-.256.084-.927.248-1.491.366-1.117.233-1.13.238-3.169 1.125-4.437 1.932-8.175 5.62-10.359 10.221-1.013 2.136-.628 1.764.499-.482 2.737-5.451 7.778-9.429 13.682-10.796 2.09-.485 6.878-.487 8.853-.004 2.144.523 3.471 1.079 6.058 2.537 2.708 1.526 5.837 5 7.539 8.369.225.446.449.77.499.721.346-.347-2.567-4.671-4.297-6.377-1.709-1.686-4.937-4.007-5.572-4.007-.071 0-.528-.177-1.014-.392-1.392-.617-1.593-.692-2.188-.813-.307-.063-1.146-.236-1.864-.386-1.407-.294-6.351-.351-7.176-.082m40.196 2.278c-.164 1.362-.127 3.7.065 4.148.1.231.165-.667.174-2.377.013-2.912-.048-3.366-.239-1.771m.267 5.151c-.008.347.065.934.163 1.305.097.371.227.914.288 1.208.061.294.147.499.19.456.044-.044-.079-.871-.273-1.839-.207-1.036-.358-1.501-.368-1.13m.738 3.391c-.019.73 1.792 4.582 2.964 6.308 2.177 3.206 8.678 8.092 10.125 7.61.092-.031-.529-.347-1.378-.703-1.481-.621-3.334-1.738-4.536-2.735-1.256-1.042-3.269-3.085-3.269-3.318 0-.083-.157-.286-.981-1.26-.36-.424-2.374-4.463-2.374-4.759 0-.321-.544-1.448-.551-1.143m-19.02 1.812c0 .185.069.416.154.513.085.097.262.555.395 1.016l.316 1.098c.042.143.124.211.184.152.109-.11-.827-3.114-.971-3.114-.043 0-.078.151-.078.335m-38.002.908a3.02 3.02 0 0 1-.143.559c-.093.265-.069.294.111.128.127-.117.191-.369.142-.559-.049-.19-.099-.248-.11-.128m39.145 2.671c-.01.359.062.778.162.932.222.344.222-.151 0-1.025l-.142-.559-.02.652m-39.997.525c-.076.443-.094.85-.039.905.135.136.369-1.163.263-1.466-.047-.134-.147.119-.224.561m40.396 3.762c-.001 2.578.023 2.849.148 1.673.082-.772.083-2.156.001-3.076-.135-1.524-.148-1.399-.149 1.403m-40.775-.699c-.068.846-.044 2.083.054 2.75.162 1.107.179.975.2-1.538.026-3.073-.068-3.52-.254-1.212m40.476 4.614a22.877 22.877 0 0 1-.344 1.636c-.112.438-.161.841-.108.894.153.153.739-2.445.66-2.931-.049-.308-.112-.188-.208.401m-40.186.148c-.021.388.586 2.67.684 2.572.097-.097-.274-1.841-.519-2.441-.084-.205-.159-.264-.165-.131m82.652.17c-.512.15-1.351.356-1.864.459-1.238.249-1.358.423-.186.27.991-.129 2.975-.699 3.193-.917.172-.171-.022-.139-1.143.188m-11.09.241c.154.099.447.18.652.18.309 0 .325-.031.094-.18a1.411 1.411 0 0 0-.653-.181c-.309 0-.325.031-.093.181m1.491.372c.713.229 1.285.229.932 0-.154-.099-.531-.173-.839-.164-.548.015-.55.018-.093.164m2.731.373c.836.073 2.053.073 2.703-.001.905-.103.547-.134-1.52-.133-2.378.001-2.52.017-1.183.134m-75.046 1.864c0 .154.082.406.181.559.16.249.181.249.181 0 0-.153-.082-.405-.181-.559-.161-.248-.181-.248-.181 0m38.578.097c0 .157-.252.841-.561 1.521-.525 1.158-.661 1.881-.187.996.462-.864 1.107-2.8.933-2.8-.102 0-.185.127-.185.283m-38.197.975c.028.285.705 1.623.718 1.421.017-.261-.517-1.561-.641-1.561-.05 0-.085.063-.077.14m55.398 1.489c.594.037 1.516.037 2.051-.001.534-.037.049-.067-1.079-.067-1.127 0-1.565.031-.972.068m-2.569.235c-.34.146-.332.16.093.16.256 0 .634-.072.839-.16.34-.146.331-.16-.093-.16-.257 0-.634.072-.839.16m6.244-.018c.154.109.474.2.711.202.238.001.598.092.802.201.204.109.513.165.687.125.331-.076-.68-.415-1.837-.616-.485-.084-.574-.063-.363.088m-58.114.437c.149.231.511.839.805 1.352 1.887 3.29 5.852 6.706 9.406 8.104.871.343 1.668.684 1.771.757.102.074.48.182.838.24.359.058 1.408.234 2.33.391 6.358 1.082 13.18-1.367 17.844-6.404 1.234-1.333 2.837-3.532 2.685-3.684-.048-.048-.386.36-.751.906-2.243 3.361-5.792 6.285-9.34 7.696l-1.677.666c-2.177.865-7.374 1.037-10.345.342-1.317-.308-4.8-1.585-5.033-1.845-.051-.057-.47-.323-.932-.59-.865-.501-1.18-.737-2.609-1.952-.782-.665-2.038-2.012-3.097-3.322-.248-.308-.789-1.126-1.202-1.818-.413-.692-.798-1.258-.857-1.258-.058 0 .016.189.164.419m50.658-.046c-.248.16-.248.181 0 .181.154 0 .406-.082.559-.181.249-.161.249-.181 0-.181-.153 0-.405.082-.559.181m-2.093.826c-3.175 1.589-5.749 4.265-7.244 7.532-.866 1.891-.618 1.781.354-.157 1.787-3.566 4.129-5.88 7.559-7.468.629-.291 1.019-.531.865-.532-.154-.002-.844.28-1.534.625m13.184-.081c.063.103.22.187.349.187.253 0 2.71 1.66 3.588 2.424.902.784 2.418 2.65 2.953 3.634.278.512.583 1.011.676 1.109.093.097.169.328.169.512 0 .185.084.336.186.336.103 0 .187.164.187.364 0 .2.078.556.173.792.096.235.226.669.289.963.063.294.159.49.214.436.456-.457-1.66-4.985-3.159-6.761-1.552-1.838-6.436-5.307-5.625-3.996m-21.22 9.762c-.077.294-.097.578-.043.632.15.15.334-.45.254-.83-.052-.249-.108-.197-.211.198m-.411 2.296c-.701 7.48 3.144 13.837 9.935 16.425 1.318.502 3.861 1.026 2.935.604-.205-.093-.64-.175-.967-.182-.328-.008-.647-.097-.71-.2-.064-.102-.28-.186-.48-.186-.2 0-.552-.097-.781-.216-.838-.433-1.068-.53-1.259-.53-.277 0-2.379-1.436-3.516-2.403-1.547-1.316-3.406-4.057-4.113-6.065-.8-2.273-.849-2.599-.839-5.651.011-3.422-.015-3.624-.205-1.596m30.554 1.736c-.005 1.888-.094 3.147-.256 3.634l-.621 1.864c-.206.615-.456 1.225-.555 1.356-.1.131-.135.285-.077.342.778.779 2.107-6.385 1.68-9.06-.132-.827-.165-.467-.171 1.864m-81.244-2.228c-9.509 1.424-12.19 14.772-4.521 22.509 2.218 2.238 4.946 3.667 7.326 3.838l1.296.093-1.025-.195c-2.026-.387-3.627-.992-5.017-1.895-1.434-.933-3.93-3.319-3.93-3.757 0-.132-.121-.34-.269-.463-1.61-1.335-2.929-6.96-2.429-10.354.307-2.08 1.201-4.716 1.739-5.125.067-.052.415-.49.773-.974.359-.485.798-.931.978-.991.179-.061.326-.182.326-.269 0-.254 1.849-1.319 3.122-1.798 4.481-1.687 11.285 1.263 13.773 5.97.277.523.739 1.412 1.028 1.976.289.564.526.886.528.716.001-.17-.305-.883-.681-1.584-2.94-5.494-7.95-8.456-13.017-7.697m13.706 9.87c0 .153.081.405.18.559.161.248.181.248.181 0 0-.154-.081-.406-.181-.559-.16-.249-.18-.249-.18 0m65.087.969c-1.276 2.005-4.238 4.552-6.379 5.487-1.371.599-1.313.58-3.076 1.034-.41.106-1.794.252-3.075.325l-2.33.133 1.996.033c5.207.087 9.936-2.357 12.856-6.645.511-.752.891-1.406.843-1.453-.048-.048-.423.441-.835 1.086m-64.6.801c.063.513.145.967.183 1.01.146.164.035-1.214-.126-1.569-.115-.251-.133-.068-.057.559m-42.846.369c-9.191 2.53-3.105 17.432 7.119 17.432 2.338 0 5.97-1.792 5.97-2.945 0-.091.147-.452.326-.801.226-.44.346-1.193.391-2.461.228-6.444-7.715-12.901-13.806-11.225m43.066 3.08c-.294 6.491-3.243 9.959-9.567 11.25-.218.045-.126.085.224.098 3.523.128 8.005-3.641 9.044-7.604.375-1.429.66-4.143.535-5.092-.11-.833-.146-.629-.236 1.348m16.808.634c-4.955 1.187-9.609 5.841-9.493 9.495.006.221.202-.234.434-1.011 1.038-3.479 3.553-6.199 7.009-7.578l.932-.374c1.921-.777 7.314-.794 8.804-.028.178.092.417.166.531.166.114 0 .933.353 1.82.783 3.272 1.588 5.918 4.868 6.662 8.258.067.307.16.456.207.329.504-1.366-2.445-6.014-4.878-7.688-3.284-2.26-8.309-3.242-12.028-2.352m78.378-.155c-.205.088-.207 52.121-.001 52.454.155.251 11.026.259 11.181.009.061-.1.116-.986.122-1.97.015-2.414.108-2.42 2.451-.156 1.468 1.419 2.224 1.995 3.302 2.515 1.669.807 2.338 1.037 2.156.743a.494.494 0 0 0-.38-.207c-1.175 0-6.249-3.806-6.249-4.688 0-.217-.717-.378-1.119-.251-.339.108-.372.282-.372 1.946v1.828l-.583.117c-.749.15-9.73.153-10.12.003-.267-.102-.295-2.583-.295-26.188v-26.075h11.908l.073.699.074.699-.016-.746-.016-.745-5.965-.034c-3.28-.018-6.048.003-6.151.047m12.108 9.866c0 4.51.025 6.329.054 4.041.03-2.288.03-5.979 0-8.201-.03-2.223-.054-.351-.054 4.16M40.075 169.74c-5.152.783-5.556 4.989-.941 9.794.866.902 1.684 1.64 1.817 1.64s.242.087.242.193c0 .105.147.244.326.307.18.064.452.219.606.345.872.712 3.242 1.753 5.709 2.507 1.958.597 5.164.025 6.158-1.1.968-1.096 1.245-4.267.418-4.778-.093-.058-.17-.256-.17-.439 0-2.149-7.385-7.662-10.904-8.139-.307-.042-.961-.16-1.453-.264-.906-.19-.976-.193-1.808-.066m101.923 5.796c-.043.179-.021.578.049.885.109.481.13.436.149-.326.023-.906-.06-1.14-.198-.559m-26.416 1.072c-.037 1.537 1.123 4.227 2.541 5.888 1.465 1.718 5.083 4.222 5.083 3.519 0-.1-.128-.181-.284-.181-2.091 0-6.22-4.889-6.984-8.268-.193-.855-.349-1.274-.356-.958m158.742-.141c.846.034 2.23.034 3.076 0 .846-.035.154-.063-1.538-.063-1.691 0-2.383.028-1.538.063m49.022 0c.846.034 2.229.034 3.075 0 .846-.035.154-.063-1.537-.063-1.692 0-2.384.028-1.538.063m-52.889.246c-.462.084-1.217.238-1.678.342l-.839.188.839-.082c2.416-.236 3.748-.418 3.856-.526.161-.161-1.132-.115-2.178.078m8.607-.112c.069.074.782.207 1.584.295.802.089 1.878.245 2.39.349 1.735.349 2.343.42 1.678.195-1.501-.507-5.961-1.169-5.652-.839m40.414.125c-.666.09-1.547.242-1.957.339l-.746.176.839-.082c3.063-.3 3.931-.412 4.04-.521.153-.154-.602-.123-2.176.088m9.04-.025c.064.102.467.186.897.186.429 0 1.452.135 2.272.3.82.165 1.701.335 1.957.377l.466.077-.466-.202c-1.004-.434-5.323-1.057-5.126-.738m44.735.359c-.313.082.592.111 2.05.065 2.285-.072 3.595.007 6.71.405.723.093.718.087-.186-.202-1.039-.331-7.563-.535-8.574-.268m-145.853.373c-.946.097-.436.149 2.33.239 1.948.063 3.919.161 4.38.217.688.084.641.057-.259-.149-1.348-.309-4.815-.474-6.451-.307m39.515.013c-.445.143-.439.15.129.168.327.01.647-.065.71-.168.132-.214-.17-.214-.839 0m49.022 0-.466.15.501.018c.276.01.554-.065.617-.168.131-.211.009-.211-.652 0m54.494.347c-3.5 1.218-6.056 3.118-7.628 5.668-.948 1.538-1.099 1.235-1.158-2.315-.049-2.98-.066-3.103-.446-3.203-.297-.077-.342-.05-.182.11.142.142.213 1.187.213 3.121 0 2.013.069 2.977.224 3.132.454.454.884.221 1.567-.848 1.585-2.482 4.436-4.504 7.915-5.613.366-.117.801-.212.967-.212.167 0 .354-.084.418-.187.185-.3-.275-.215-1.89.347m-228.738.585c-.745 3.325-3.352 6.207-7.024 7.766-1.896.805-1.942.83-1.305.715 3.776-.683 9.08-6.272 8.626-9.088-.044-.273-.148-.061-.297.607m82.818-.559-.559.142.652.02c.359.01.778-.062.932-.162.344-.222-.151-.222-1.025 0m40.628.175c-6.903 2.458-11.273 7.697-12.605 15.109-.358 1.994-.302 8.01.093 10.066.512 2.658 1.016 4.311 1.042 3.412.007-.224-.062-.454-.154-.51-.091-.057-.219-.418-.284-.804-.065-.385-.205-1.162-.31-1.726-.574-3.088-.413-11.829.225-12.223.089-.055.162-.301.162-.547 0-.245.095-.681.21-.967.115-.287.271-.689.347-.894 1.774-4.822 6.211-8.975 11.466-10.731.736-.246 1.28-.56.922-.533-.097.008-.599.164-1.114.348m20.291-.238c.068.069.53.267 1.027.442.496.175 1.121.434 1.387.576.267.141.888.46 1.381.708 1.808.91 4.495 3.183 5.363 4.535.181.282.409.512.507.512.62 0-2.583-3.248-4.286-4.347-2.057-1.326-6.105-3.151-5.379-2.426m29.295.063c-.359.155-.358.161.036.173.224.008.46-.07.523-.173.137-.22-.046-.22-.559 0m19.851.035c.256.108.634.261.839.341 5.801 2.249 9.798 6.609 11.444 12.485.558 1.991.89 1.886-5.808 1.851l-5.549-.029-.37-.47c-.203-.258-.37-.575-.37-.704 0-.128-.17-.432-.378-.674-.269-.313-.203-.078.228.821l.606 1.261 6.063-.049 6.063-.05-.046-.745c-.329-5.329-5.498-11.406-11.82-13.898-.937-.37-1.745-.495-.902-.14m48.555-.035c.064.103.238.187.387.187.149 0 .416.073.595.162 2.283 1.146 2.897 1.501 3.796 2.19 1.057.81 2.095 2.086 2.806 3.451.211.405.421.7.466.654.418-.417-2.349-3.821-4.02-4.944-1.388-.934-4.321-2.171-4.03-1.7m-31.079.132c.232.045.568.043.746-.004.178-.046-.011-.083-.421-.081-.411.002-.556.04-.325.085m-130.151.571c-2.515.858-5.011 2.511-5.681 3.763-.115.215-.289.342-.386.281-.097-.06-.177.064-.177.275 0 .554.24.472.649-.222.414-.704 1.844-2.092 2.52-2.447 2.128-1.116 2.8-1.421 3.134-1.421.212 0 .437-.084.5-.186.064-.103.299-.188.524-.189.225-.002.534-.085.688-.184.527-.341-.202-.205-1.771.33m13.234-.33c.063.103.341.18.617.173.448-.011.462-.03.129-.173-.518-.223-.883-.223-.746 0m78.565-.057c-3.553 1.266-9.693 6.189-9.693 7.771 0 .054-.232.5-.516.992-.533.921-1.437 3.383-1.294 3.525.044.044.265-.446.491-1.09 1.569-4.453 4.75-7.946 9.334-10.247.769-.386 1.54-.703 1.714-.705.173-.001.367-.086.43-.189.123-.2-.018-.217-.466-.057m36.347 20.281c0 11.225.063 20.41.139 20.41.077 0 .146-9.185.154-20.41.007-11.226-.056-20.41-.14-20.41-.084 0-.153 9.184-.153 20.41m-113.624-19.878c.073.117.281.213.464.213.488 0 3.31 1.45 4.492 2.307 3.359 2.437 5.659 5.718 7.008 9.995.34 1.077.621 1.776.626 1.555.028-1.338-2.398-6.757-3.533-7.892a35.96 35.96 0 0 1-.814-.99c-1.099-1.367-3.658-3.323-5.605-4.283-1.889-.932-2.86-1.265-2.638-.905m58.828 6.278c.002.098.168.389.369.645.2.257.366.564.368.684.003.119.067.245.144.279.077.035.339.482.582.994.628 1.327.725 1.576.979 2.517.124.461.296.918.381 1.016.086.097.155.495.155.885v.708h-11.866l-.479-1.071c-1.085-2.428-4.077-5.285-5.508-5.261-.176.003.246.308.938.677 1.988 1.06 3.287 2.465 4.499 4.866l.496.981 6.1-.049 6.1-.05-.059-.652c-.159-1.778-3.233-8.668-3.199-7.169m96.038.133c.074.193.528 1.709.818 2.729.04.143.115.218.167.166.184-.184-.716-3.128-.957-3.128-.064 0-.077.105-.028.233m-117.89.665c-.175.07.933.127 2.463.127s2.638-.057 2.463-.127c-.176-.069-1.284-.126-2.463-.126s-2.287.057-2.463.126m48.909.009c-.136.086.603.115 1.652.064 3.85-.185 6.678.828 8.855 3.172.692.746 1.083 1.104.868.796-1.371-1.964-3.44-3.364-5.817-3.934-1.134-.273-5.171-.344-5.558-.098m-50.458.405c-.079.127.062.15.408.067.715-.172.782-.261.198-.261-.267 0-.54.087-.606.194m7.274-.007c.518.222.883.222.746 0-.064-.103-.341-.181-.617-.174-.448.012-.462.03-.129.174m41.752 0c-.136.22.046.22.559 0 .36-.155.358-.161-.035-.174-.225-.007-.461.071-.524.174m-197.484.242c0 .055.525.268 1.165.473 1.366.438 3.185.711 2.75.413-.154-.105-.631-.192-1.061-.194-.43-.001-.827-.077-.883-.167-.056-.091-.334-.209-.617-.263a9.613 9.613 0 0 1-.934-.229c-.231-.073-.42-.088-.42-.033m146.788.368c-1.079.602-1.163.669-2.507 1.999-.683.676-1.42 1.624-1.664 2.144a68.952 68.952 0 0 1-.605 1.255 1.783 1.783 0 0 0-.166.688c0 .201-.075.411-.167.467-.406.251-.651 6.462-.321 8.121.605 3.037 2.287 5.783 4.216 6.882 1.431.816 2.818 1.326 3.554 1.308.249-.006-.101-.161-.778-.344-8.794-2.373-9.785-18.107-1.404-22.3.708-.354 1.129-.642.936-.64-.193.003-.686.191-1.094.42m49.101-.078c-3.745 1.874-5.712 5.478-5.865 10.744l-.059 2.051.154-1.864c.51-6.196 2.612-9.593 6.899-11.146.197-.072.169-.104-.093-.109-.205-.004-.671.142-1.036.324m-96.923.472c-3.479 1.206-6.285 3.847-7.163 6.74-.385 1.272-.332 1.694.07.55.953-2.717 4.114-6.431 5.473-6.431.137 0 .33-.076.427-.169.205-.195 2.52-.889 3.346-1.003.454-.062.419-.08-.187-.093-.41-.01-1.295.173-1.966.406m4.685-.378c.042.037.579.117 1.192.178.724.071 1.018.048.839-.065-.253-.16-2.21-.268-2.031-.113m-96.288.492-.559.142.559.011c.307.007.895-.058 1.305-.142l.745-.155-.745.001c-.41 0-.998.065-1.305.143m98.975 0c.513.22.695.22.559 0-.063-.103-.299-.181-.524-.173-.393.012-.395.018-.035.173m-101.542.321c.331.041.918.042 1.305.001.386-.04.116-.074-.602-.075-.718 0-1.034.033-.703.074m103.033.186c1.741.705 3.64 2.425 4.656 4.217.717 1.265.902 1.193.237-.093-.574-1.11-2.879-3.408-3.832-3.821-.43-.186-.782-.403-.782-.481 0-.079-.23-.138-.512-.133-.469.009-.45.035.233.311m138.782.227c-.166.105.183.13.932.065.66-.057 1.234-.135 1.277-.172.174-.153-1.962-.049-2.209.107m4.324.012c2.863.366 4.682 1.884 5.487 4.577.298.998.341 2.36.429 13.782l.099 12.675.04-12.395c.043-13.349.028-13.604-.966-15.698-.816-1.72-3.28-3.161-5.306-3.104l-.857.025 1.074.138m-5.827.363c-.154.085-.612.311-1.018.501-1.639.77-3.955 3.622-4.426 5.451-.095.371-.267 1.01-.381 1.42-.137.49-.245 4.582-.314 11.929l-.106 11.184-3.541.099-3.542.099 3.569.041c3.105.035 3.582.002 3.681-.255.062-.162.114-4.922.114-10.578.002-12.346.096-13.207 1.727-15.902 1.11-1.833 2.66-3.148 4.466-3.79.669-.237.833-.35.516-.352-.256-.001-.592.067-.745.153m23.951 15.451c0 8.32.063 15.127.14 15.127.175 0 .165-28.534-.011-29.526-.071-.4-.129 6.079-.129 14.399m-90.589-12.528c-.062.294-.192.886-.288 1.316-.222.988-.219 1.937.003 1.082.4-1.536.615-2.716.512-2.819-.062-.062-.165.127-.227.421m-52.805 2.212c.005.205.073.624.151.932l.142.559.009-.559c.005-.308-.063-.727-.151-.932l-.16-.373.009.373m-12.026 1.398c.062.461.17 1.678.239 2.703l.128 1.864.015-1.771c.009-.974-.098-2.19-.239-2.703l-.255-.932.112.839m64.153.885c-.041.487-.025 1.934.036 3.216l.112 2.33.033-3.216c.033-3.177-.035-4.051-.181-2.33m-51.714 2.936c-.002 2.158.05 3.177.131 2.61.167-1.164.166-3.56-.002-5.033-.08-.708-.128.182-.129 2.423m-34.845-2.054c-.564 5.269 2.488 10.819 6.81 12.386.359.13.82.305 1.025.389 1.232.502 5.222.786 5.808.413.118-.076-.846-.141-2.144-.146-5.201-.02-9.242-2.886-10.632-7.54a31.013 31.013 0 0 0-.433-1.339c-.101-.275-.187-1.596-.192-2.936-.011-2.742-.055-2.966-.242-1.227m-78.909-.256c-3.751 1.007-8.038 4.753-8.722 7.622-.062.257-.201.579-.31.717-.376.476-.262 3.975.157 4.796.538 1.056 1.705 2.522 2.22 2.789 1.748.907 5.021 1.349 6.298.851.236-.092.806-.273 1.267-.402.721-.202 2.092-.885 3.449-1.718.618-.38 3.448-3.307 3.448-3.567 0-.132.239-.572.532-.976.293-.404.581-.983.641-1.286.059-.303.202-.971.317-1.483 1.172-5.205-3.505-8.899-9.297-7.343m177.874 4.267c.163 1.327.667 3.146.913 3.298.124.076.14-.009.046-.238-.252-.613-.498-1.619-.679-2.767-.222-1.412-.448-1.648-.28-.293m-76.654.222c-.108.545-.25 1.241-.315 1.549-.084.401-.064.484.069.292.225-.322.673-2.599.539-2.734-.053-.053-.185.349-.293.893m49.525.93c-.168.136-.485.8-.705 1.478-.961 2.956-3.344 5.208-6.373 6.022-.681.184-.842.274-.501.283 2.264.055 5.961-3.001 6.87-5.679.138-.407.318-.819.4-.917.081-.097.148-.37.148-.605v-.429h11.929l-.008.606c-.009.678-.399 2.287-.604 2.491-.073.074-.133.289-.133.478s-.097.532-.216.761c-.447.865-.53 1.071-.522 1.3.019.624 1.044-2.038 1.452-3.772.368-1.567.406-1.841.265-1.923-.414-.239-11.711-.328-12.002-.094m48.868-.033c-.078.051-.33.638-.561 1.304-.79 2.287-1.944 3.85-3.633 4.922-5.331 3.384-13.526 1.838-15.947-3.01-.224-.45-.447-.779-.494-.731-.315.315 1.365 2.627 2.547 3.506 2.912 2.165 8.077 2.917 11.464 1.668 3.236-1.193 5.015-2.932 6.165-6.029l.536-1.444h5.818c3.521 0 5.862.071 5.929.179.061.099-.06.867-.27 1.708-.425 1.71-.382 2.23.057.69.457-1.601.582-2.763.296-2.763-.134 0-2.836-.021-6.004-.047-3.168-.026-5.824-.005-5.903.047m-33.914.372c-.157 4.387 3.758 11.103 7.905 13.564 2.006 1.19 6.056 2.716 6.371 2.401.1-.1-1.813-.68-2.242-.68-.157 0-.338-.084-.401-.187-.064-.102-.237-.186-.386-.186-.836 0-4.125-1.997-5.633-3.42-2.708-2.556-4.252-5.515-5.169-9.907-.236-1.128-.436-1.841-.445-1.585m-52.259.932a3.77 3.77 0 0 0-.115.932c.012.401.039.379.194-.158.099-.343.151-.763.115-.932-.045-.217-.102-.171-.194.158m-13.332 1.223c-1.26 2.554-3.8 4.475-6.84 5.172-.302.07-.284.089.093.105.476.019 1.755-.363 1.985-.594.07-.07.246-.128.389-.128 1.2 0 5.679-5.057 5.042-5.693-.04-.04-.341.472-.669 1.138m12.578 1.887c-1.134 3.595-3.359 6.837-6.059 8.828-1.111.82-3.639 2.199-4.578 2.497-.195.062-.301.165-.237.229.499.499 5.762-2.899 7.364-4.755 1.937-2.244 4.425-7.251 4.095-8.243-.037-.109-.3.54-.585 1.444m97.366 1.027c-2.215 5.416-5.501 8.522-10.893 10.295-.194.064-.312.156-.263.205.09.09 1.026-.168 1.735-.478l1.025-.444c2.702-1.165 7.269-5.395 7.269-6.733 0-.066.154-.343.342-.616.404-.585 1.606-3.548 1.488-3.666-.045-.045-.362.601-.703 1.437m-91.992.36c.689 2.268 3.052 5.517 5.174 7.114 1.352 1.017 3.982 2.5 4.145 2.336.043-.042-.485-.361-1.173-.707-2.884-1.455-5.745-4.165-6.893-6.53a17.771 17.771 0 0 0-.385-.745c-.423-.743-.59-1.137-.59-1.385a.515.515 0 0 0-.206-.398c-.142-.088-.164.012-.072.315m42.345 1.316c-.266.538-.451 1.009-.412 1.049.04.04.293-.364.563-.897.27-.533.455-1.005.412-1.049-.044-.043-.297.36-.563.897m-22.804.941c.118.076 1.18.137 2.359.137s2.24-.061 2.358-.137c.119-.075-.943-.137-2.358-.137-1.416 0-2.477.062-2.359.137m21.511 1.305c-.884 1.312-2.842 3.33-3.824 3.942-2.241 1.397-3.912 2.154-5.784 2.62-1.014.252-1.448.477-.922.477 1.107 0 6.127-2.21 7.345-3.234 1.395-1.172 4.159-4.475 3.933-4.7-.047-.047-.384.355-.748.895m-30.988 6.193c.816.352 1.513.543 1.348.369-.168-.177-1.45-.641-1.721-.623-.103.007.065.121.373.254m-27.493.66c-.371.239.095.239.652 0l.373-.16-.373-.011a1.34 1.34 0 0 0-.652.171m29.543 0c.557.239 1.023.239.652 0a1.34 1.34 0 0 0-.652-.171l-.373.011.373.16m67.568 0c-.371.239.095.239.652 0l.373-.16-.373-.011a1.34 1.34 0 0 0-.652.171m-109.6.469c1.108.292 3.7.586 3.533.402-.09-.098-.823-.209-3.905-.591-.382-.047-.227.032.372.189m10.998-.096c-.367.237.287.237.838 0 .342-.147.334-.162-.093-.171-.256-.006-.592.071-.745.171m32.525 0c.308.078.769.143 1.025.145l.466.004-.466-.149a3.92 3.92 0 0 0-1.025-.146l-.559.003.559.143m15.005 0c-.453.145-.451.149.093.149.308 0 .769-.067 1.025-.149.453-.146.451-.15-.093-.15-.308 0-.769.067-1.025.15m33.566-.116c.155.164 3.646.672 4.629.674 1.354.001.769-.167-1.302-.374a84.999 84.999 0 0 1-2.69-.306c-.41-.06-.697-.058-.637.006m15.455.116-.466.149.466-.004a5.237 5.237 0 0 0 1.025-.145l.56-.143-.56-.003a3.932 3.932 0 0 0-1.025.146m-99.254.372-.559.143.652.011c.359.006.988-.058 1.398-.143l.746-.154h-.839c-.462.001-1.091.065-1.398.143m37.651.009c.513.08 1.31.142 1.771.138l.839-.007-.839-.149a11.474 11.474 0 0 0-1.771-.138l-.932.011.932.145m8.854-.009-.839.131 1.025.009c.564.006 1.487-.054 2.051-.132l1.025-.142-1.212.002c-.666.001-1.589.061-2.05.132m48.835 0c-.801.125-.784.131.373.145.666.008 1.589-.053 2.05-.135 1.135-.202-1.128-.211-2.423-.01m-54.473.318c.23.045.608.045.838 0 .231-.044.042-.081-.419-.081-.461 0-.65.037-.419.081m79.124-.003c.179.047.472.047.652 0 .179-.047.033-.085-.326-.085s-.506.038-.326.085m31.127.011c1.41.032 3.716.032 5.126 0 1.41-.032.256-.058-2.563-.058s-3.972.026-2.563.058m-242.078 1.382c-2.375.581-2.801.761-4.442 1.879-3.627 2.473-3.582 6.584.093 8.454 1.699.864 4.399 1.227 6.005.806l1.513-.397c4.016-1.053 6.605-4.609 5.42-7.446-.998-2.387-5.4-4.077-8.589-3.296m155.483 1.399c-.276.276-.141 31.13.137 31.361.166.138.831.197 1.818.163l1.555-.055.03-.559c.017-.323-.007-.392-.056-.165-.094.432-1.63.719-2.703.505l-.528-.106-.049-15.122c-.027-8.317.013-15.313.089-15.548.132-.407.212-.424 1.771-.373l1.633.054.049 5.213c.055 5.759.077 5.855 1.108 4.925 4.101-3.701 10.881-2.151 13.47 3.079.411.83.747 1.401.748 1.271.016-1.938-3.39-5.372-6.139-6.19-2.914-.868-7.408.108-8.479 1.842-.4.648-.478-.178-.478-5.107v-5.312h-1.926c-1.059 0-1.982.056-2.05.124m60.912.109c-.049.128-.067 7.236-.041 15.796l.049 15.564 1.584.055c.871.031 1.773.008 2.004-.05l.419-.105V221.622h-1.963c-1.399 0-1.989.067-2.052.233m9.172-.109c-.393.393-.124 4.349.295 4.327.316-.016.339-.042.093-.106-.284-.075-.326-.334-.326-2.009 0-2.218-.057-2.15 1.798-2.15 1.9 0 1.958.066 1.916 2.202l-.035 1.805-.861.111-.861.11.979.03.978.029V221.622h-1.926c-1.059 0-1.982.056-2.05.124m-5.638.175c.265.102.295 1.647.295 15.564v15.451h-3.724l.009-15.374c.007-14.244.031-15.388.323-15.559.347-.202 2.627-.262 3.097-.082m-34.134 8.18c-2.612.639-5.21 2.613-6.434 4.889-.668 1.243-1.398 3.52-1.193 3.725.054.054.149-.142.21-.436.307-1.468 1.176-3.51 1.813-4.26 1.617-1.901 3.043-2.93 4.711-3.397.41-.115 1.081-.306 1.491-.425 4.761-1.379 10.646 2.092 11.934 7.037.272 1.045.463 1.444.459.961-.003-.501-.522-1.977-1.081-3.076-2.084-4.098-7.072-6.2-11.91-5.018m23.618-.028c-.914.431-1.334.788-2.07 1.759-.889 1.173-1.042 1.134-1.074-.271-.032-1.382-.047-1.392-1.999-1.318l-1.661.062 1.725.039 1.724.038v1.387c0 1.605.171 1.828.776 1.014.861-1.155 2.125-2.312 2.778-2.541.796-.278 2.714-.309 2.876-.046.064.102.362.186.664.186.301 0 .548.084.548.186 0 .103.115.187.257.187.563 0 .746.522.478 1.357-.713 2.217-1.003 2.545-1.76 1.99-2.022-1.482-5.937 1.138-5.858 3.92.007.28.143.018.337-.65.866-2.991 2.838-4.031 5.644-2.976.531.2.722.207.858.032.326-.42.789-1.492.789-1.827 0-.183.084-.385.187-.448.471-.292.199-1.311-.42-1.572-1.85-.78-3.788-.985-4.799-.508m33.157.02a8.837 8.837 0 0 0-3.491 1.9c-1.172 1.025-1.121 1.044-1.186-.446l-.055-1.258-1.396-.056c-.768-.03-1.585-.008-1.817.05l-.422.106v11.251c0 13.004-.252 11.707 2.265 11.629l1.743-.054.003-7.083.004-7.083-.053 6.917-.052 6.916-1.256.104c-.691.058-1.487.06-1.769.005l-.512-.099v-22.51h3.169l.002 1.165c.005 1.77.153 1.854 1.364.776 1.916-1.708 3.236-2.19 5.996-2.19 2.2 0 2.627.085 4.312.853 1.072.489 2.214 1.88 2.78 3.387.189.503.374.825.41.716.096-.289-.955-2.492-1.417-2.972-1.87-1.939-5.684-2.834-8.622-2.024m-14.984.239 1.771.064V252.889l-.513.09c-.282.049-.974.066-1.537.037-.564-.029-1.172-.059-1.35-.066-.305-.013-.328-.722-.375-11.338l-.051-11.323.003 11.463.002 11.463 1.584.055c.872.031 1.774.008 2.005-.05l.421-.106-.048-11.412-.048-11.413-1.818-.011-1.817-.01 1.771.064m-63.97 2.83c-2.241.764-4.59 3.832-4.506 5.887.008.219.093.104.205-.279.686-2.356.964-2.859 2.288-4.137 3.331-3.217 8.581-.94 9.323 4.044.076.512.18.815.231.673.051-.142-.006-.702-.128-1.244-.841-3.759-4.24-6.026-7.413-4.944m23.419-.077c-2.403.659-4.875 3.084-4.827 4.736.005.163.246-.216.535-.842 2.748-5.934 11.66-4.673 11.998 1.698l.04.745h-12.488l-.116-.652-.115-.653-.024.688c-.036.985-.179.965 6.665.929 7.014-.038 6.69.039 6.297-1.509-.993-3.915-4.406-6.117-7.965-5.14m55.09.323c-2.098.754-3.509 2.511-3.709 4.616l-.098 1.025.195-.838c.762-3.285 2.607-4.847 5.727-4.847 2.625 0 3.91 1.168 4.411 4.008.195 1.107.234 1.19.254.546.106-3.443-3.35-5.742-6.78-4.51m10.559 10.794-.028 8.693-.502.126c-.276.07-1.102.07-1.835.001l-1.333-.125-.039-6.638c-.021-3.651-.077-6.677-.124-6.725-.197-.196-.062 13.294.135 13.531.291.35 3.573.339 3.865-.013.242-.291.264-13.474.026-16.053-.081-.882-.148 2.06-.165 7.203m-78.101-7.203c0 .205.073.541.161.746l.16.372v-.372a2.27 2.27 0 0 0-.16-.746l-.161-.373v.373m.388 1.771c.002.359.067.904.145 1.211.136.532.143.523.146-.186.002-.41-.064-.955-.146-1.212-.134-.42-.148-.402-.145.187m23.844 1.91-.027 2.004h-8.47c-4.658 0-8.502.063-8.542.14-.041.077.034.643.166 1.258l.239 1.118-.093-1.165-.094-1.165h8.289c9.519 0 8.884.085 8.86-1.184-.045-2.318-.301-3.102-.328-1.006m7.732-1.328c-.064.321-.117 3.508-.117 7.083v6.501h-1.874c-1.203 0-1.834.067-1.76.186.175.284 3.546.238 3.786-.051.186-.224.341-14.301.157-14.301-.042 0-.128.262-.192.582m-28.687 1.328c-.059.949-.041 2.312.04 3.029.122 1.096.15.819.172-1.724.03-3.391-.051-3.89-.212-1.305m-18.872 1.631c.087 5.568 2.053 8.255 6.021 8.233 3.199-.018 6.301-3.112 6.173-6.159-.014-.327-.099-.173-.254.462-1.731 7.07-9.686 7.507-11.515.633-.096-.359-.241-1.869-.322-3.355l-.149-2.703.046 2.889m12.28-.466c0 .923.031 1.324.07.891.039-.432.04-1.187.001-1.677-.038-.49-.07-.136-.071.786m3.749 2.044c-.073.679-.087 1.28-.033 1.334.055.055.159-.456.232-1.135.073-.679.087-1.279.033-1.334-.055-.055-.159.456-.232 1.135m3.246 2.004c.086.518.112.544.171.171.038-.242-.008-.517-.102-.611-.103-.104-.13.07-.069.44m3.942-.455c-.014.584 1.336 2.84 2.083 3.482 2.641 2.27 6.79 2.274 8.99.01.787-.809 2.105-3.077 1.789-3.077-.082 0-.383.477-.669 1.061-2.393 4.893-9.067 4.641-11.56-.437-.345-.702-.63-1.17-.633-1.039m-7.568.528c-1.051 3.216-2.789 5.481-5.044 6.569-.499.241-1.053.514-1.231.606-.178.092-.571.167-.874.167-.303 0-.606.09-.673.199-.655 1.058 3.764-1.06 5.152-2.47 1.427-1.449 3.299-4.91 2.882-5.328-.053-.053-.148.063-.212.257m21.449.073c.307.078.894.142 1.304.142.707 0 .717-.007.187-.142a6.483 6.483 0 0 0-1.305-.142c-.707 0-.717.007-.186.142m2.473.342c.837.532-1.973 4.544-4.098 5.852-1.177.724-1.14.838.061.191 2.165-1.166 5.539-6.207 4.147-6.196-.247.002-.279.046-.11.153m-20.088.276c0 .213.604 1.636.668 1.573.08-.081-.375-1.401-.54-1.566-.07-.07-.128-.074-.128-.007m1.134 2.538c.903 1.606 3.271 3.397 5.37 4.06 1.466.463 6.648.451 7.756-.019.607-.257.642-.295.186-.204-3.802.755-6.872.545-9.493-.65-1.139-.519-2.84-2.049-3.582-3.221-.586-.924-.761-.899-.237.034m-20.596 1.997c-.065.168-.074.35-.02.403.054.054.098 0 .098-.119 0-.381.456-.236 1.096.348.975.891 2.732 1.692 3.916 1.787.575.046 1.381.117 1.791.158.441.044.631.013.466-.075-.154-.083-.958-.204-1.786-.269-1.584-.126-2.474-.468-3.94-1.514-.431-.308-.787-.664-.791-.793-.01-.343-.693-.283-.83.074" fill="#000000"/></g></svg>